<svg version="1.1" id="Layer_1" xmlns="http://www.w3.org/2000/svg" xmlns:xlink="http://www.w3.org/1999/xlink" x="0px" y="0px"
	 width="100%" viewBox="0 0 182 184" enable-background="new 0 0 182 184" xml:space="preserve">
<path fill="#FDFDFC" opacity="1.000000" stroke="none" 
	d="
M183.000000,171.000000 
	C183.000000,175.662659 183.000000,180.325302 183.000000,184.990967 
	C122.389488,184.993988 61.778984,184.993988 1.084237,184.993988 
	C1.084237,123.775650 1.084237,62.551140 1.084237,1.163316 
	C61.666286,1.163316 122.333130,1.163316 183.000000,1.163316 
	C183.000000,3.347843 183.000000,5.679188 182.662476,8.474144 
	C179.777542,7.633524 178.136429,8.668000 176.530243,11.000151 
	C161.342667,10.996703 146.623016,10.934795 131.905350,11.077044 
	C130.263275,11.092915 128.632416,12.268926 126.674911,12.949996 
	C125.921532,13.005875 125.489578,13.018674 124.634232,13.020205 
	C119.819145,12.638758 116.505005,13.556068 116.656235,19.103466 
	C111.913147,21.250648 113.221703,25.307795 112.688034,28.923763 
	C111.975998,29.369183 111.531044,29.709183 110.773094,29.911249 
	C107.432167,30.633816 104.404236,31.494316 101.376312,32.354816 
	C101.663124,32.573959 101.949944,32.793106 102.236755,33.012253 
	C100.517296,35.020775 98.797829,37.029301 96.721039,39.077469 
	C94.574677,40.410133 92.785645,41.703148 90.623276,42.995979 
	C88.727486,42.553322 87.205032,42.110851 85.669899,41.664692 
	C85.014816,43.019947 84.342010,44.411858 83.444069,46.269535 
	C82.062027,45.030163 81.236259,44.003159 80.173218,43.382633 
	C73.025383,39.210209 72.775490,38.673420 75.114182,31.076672 
	C77.377998,23.723133 76.607414,21.892887 69.446220,17.583370 
	C69.165543,17.414465 68.807213,17.237318 68.680016,16.970924 
	C66.009384,11.377888 62.641998,12.803121 59.055283,15.627400 
	C58.278408,14.563886 57.533810,13.864934 56.867207,13.154745 
	C56.945206,13.143508 56.810768,13.225770 56.804909,12.804596 
	C56.190376,11.932673 55.584476,11.092822 54.972614,11.088456 
	C41.887070,10.995076 28.800484,10.953761 15.715614,11.071170 
	C14.844470,11.078986 13.985380,12.430213 13.077356,13.098442 
	C13.034031,13.040291 13.156092,13.118626 12.742107,13.155506 
	C11.878777,15.154559 11.043029,17.115677 11.037662,19.079065 
	C10.947639,52.008873 11.148249,84.940582 10.864339,117.868248 
	C10.742411,132.009476 9.365948,146.139481 9.225586,160.281204 
	C9.190479,163.818237 11.732502,167.380814 13.509752,170.973969 
	C15.611938,171.068619 17.294443,171.120972 19.047157,171.487000 
	C19.906263,172.627792 20.618475,174.066101 21.497326,174.176376 
	C25.318886,174.655914 29.186817,174.893204 33.041904,174.950882 
	C40.351826,175.060287 47.664497,174.986176 55.409351,174.991943 
	C57.008621,174.977859 58.238003,175.194443 59.328804,174.899155 
	C62.819889,173.954025 65.829361,172.866989 67.777519,177.758331 
	C68.887169,180.544357 73.736992,179.090408 75.059067,176.005569 
	C75.788185,174.304276 77.159096,172.867798 78.299774,171.356537 
	C79.146904,170.234177 80.567513,169.312210 80.899658,168.076965 
	C81.913651,164.306030 84.753181,162.489578 87.871742,163.388321 
	C89.261330,163.788803 90.331749,167.814178 90.263542,170.156952 
	C90.164864,173.546295 91.742325,175.306992 94.422188,174.779022 
	C96.644112,174.341278 98.507591,172.084137 100.529869,170.633011 
	C100.493050,169.856049 100.456223,169.079086 100.419403,168.302124 
	C102.300438,169.395401 104.839348,170.052933 105.916214,171.678833 
	C107.769241,174.476608 109.918739,175.271317 113.006241,175.040863 
	C115.657791,174.842926 118.335732,174.998596 121.464966,174.998077 
	C128.308868,174.317642 134.689804,173.637039 141.435974,172.955887 
	C142.535645,172.961029 143.270050,172.966705 144.046692,173.350800 
	C145.717316,174.818130 147.388367,176.896912 148.966904,176.828888 
	C156.865067,176.488632 164.742279,175.617920 172.613876,174.807449 
	C173.133881,174.753922 173.545929,173.651810 174.402893,173.022980 
	C176.224915,172.348648 177.652267,171.688797 179.471588,171.021225 
	C180.909042,171.009003 181.954514,171.004501 183.000000,171.000000 
M90.967606,30.342564 
	C90.527657,31.207043 89.857437,32.031731 89.699631,32.944965 
	C89.437370,34.462696 89.504112,36.037285 89.432289,37.587925 
	C91.214767,37.059277 94.208931,36.952019 94.565262,35.927395 
	C95.943214,31.965162 96.480026,27.710402 97.330177,23.564615 
	C96.550377,23.274940 95.770569,22.985266 94.990768,22.695591 
	C93.674988,24.991428 92.359215,27.287266 90.967606,30.342564 
M98.201042,20.605463 
	C98.205269,20.213228 98.209496,19.820992 98.213722,19.428757 
	C98.050957,19.427206 97.746735,19.414728 97.745895,19.425680 
	C97.715744,19.815992 97.713989,20.208500 98.201042,20.605463 
M92.604973,19.799221 
	C92.213028,19.794989 91.821091,19.790756 91.429138,19.786524 
	C91.427597,19.949167 91.415131,20.253170 91.426102,20.254019 
	C91.816101,20.284166 92.208282,20.285921 92.604973,19.799221 
z"/>
<path fill="#FDFCFB" opacity="1.000000" stroke="none" 
	d="
M183.000000,60.000000 
	C183.000000,92.687561 183.000000,125.375122 182.634552,158.537170 
	C180.750244,159.837616 179.231369,160.663589 177.655106,161.520782 
	C173.850433,160.930908 173.370544,153.441727 168.526367,155.942154 
	C165.720230,154.092865 163.366989,152.542053 161.007965,150.659454 
	C161.001221,149.884384 161.000275,149.441086 161.063324,148.644836 
	C163.768234,145.030396 165.371735,148.658249 167.443207,149.229935 
	C169.996170,149.934464 172.566803,150.574890 175.129822,151.243027 
	C175.740891,148.453415 177.132599,145.537125 176.707275,142.915649 
	C176.387299,140.943512 173.794632,139.290604 172.098801,137.611603 
	C171.218933,136.740479 169.622314,136.340134 169.157578,135.348434 
	C167.497589,131.806229 166.316589,131.991333 164.826645,135.417709 
	C164.532394,136.094345 163.374649,136.395493 162.615112,136.869797 
	C162.119400,135.977493 161.397781,135.132889 161.196243,134.178452 
	C161.020691,133.347137 161.432114,132.391891 161.406876,132.541275 
	C158.169418,130.265091 155.611206,128.466446 152.685562,126.409492 
	C151.950226,126.987312 150.852753,127.849686 149.458496,128.945251 
	C147.985504,127.208382 145.863678,125.759720 145.447601,123.924370 
	C145.017639,122.027687 146.245010,119.755310 146.723877,117.745857 
	C144.123138,117.314507 141.877869,116.877701 139.613617,116.590469 
	C138.230850,116.415062 136.818893,116.469650 135.420059,116.420937 
	C136.253525,117.568077 136.864059,119.038109 137.964798,119.798126 
	C140.618134,121.630112 140.975189,122.756210 138.956207,124.703751 
	C137.604797,124.950951 136.296555,125.495300 134.739624,126.030365 
	C134.490921,126.021072 133.993515,126.003250 133.870941,125.712509 
	C133.128098,124.759094 132.507812,124.096428 131.887543,123.433754 
	C131.587173,123.941658 131.286789,124.449562 130.643326,124.900681 
	C130.071640,123.211479 129.843048,121.579063 129.533783,119.370583 
	C123.149818,115.542336 114.720001,113.181091 110.909851,104.245140 
	C108.905350,99.543999 103.970131,98.000580 98.441582,99.087433 
	C98.022011,98.732162 97.855591,98.436562 98.033997,97.983887 
	C99.610580,95.638824 100.373657,92.174812 102.167099,91.516106 
	C106.528603,89.914162 107.169502,86.940186 107.577301,83.141586 
	C110.622459,81.883301 113.308495,80.670448 115.994537,79.457596 
	C115.892159,79.278625 115.789780,79.099655 115.687408,78.920685 
	C118.118828,77.598663 120.550247,76.276642 123.197533,75.225754 
	C124.654297,74.655739 126.011856,73.941925 127.105453,72.939987 
	C128.365952,71.785141 129.172699,69.651894 130.567627,69.226677 
	C133.541946,68.320038 136.808258,68.427559 139.881760,67.774986 
	C143.296967,67.049850 146.630768,65.941315 150.389404,64.999283 
	C152.367966,64.317795 153.961945,63.647751 155.544815,62.952415 
	C156.990997,62.317116 158.394058,61.180092 159.869843,61.083313 
	C167.570450,60.578308 175.288208,60.334610 183.000000,60.000000 
z"/>
<path fill="#FCFDF9" opacity="1.000000" stroke="none" 
	d="
M183.000000,59.531342 
	C175.288208,60.334610 167.570450,60.578308 159.869843,61.083313 
	C158.394058,61.180092 156.990997,62.317116 155.544815,62.952415 
	C153.961945,63.647751 152.367966,64.317795 150.389862,64.610748 
	C152.021255,59.377720 152.268982,53.117981 159.762238,52.753178 
	C160.879074,52.698807 162.461273,51.146774 162.877472,49.955452 
	C163.883820,47.074879 164.328369,43.998032 165.037933,40.643295 
	C166.701843,36.865047 168.856216,35.326382 173.010773,36.612251 
	C174.433121,37.052479 177.904602,35.275093 178.246979,33.945988 
	C179.143906,30.464216 178.831970,26.671036 179.330505,22.954245 
	C180.772781,22.271011 181.886398,21.635506 183.000000,21.000000 
	C183.000000,33.687561 183.000000,46.375122 183.000000,59.531342 
z"/>
<path fill="#EFF1FA" opacity="1.000000" stroke="none" 
	d="
M161.013763,150.991241 
	C163.366989,152.542053 165.720230,154.092865 168.526367,155.942154 
	C173.370544,153.441727 173.850433,160.930908 177.655106,161.520782 
	C179.231369,160.663589 180.750244,159.837616 182.634552,159.005829 
	C183.000000,162.692902 183.000000,166.385818 183.000000,170.539368 
	C181.954514,171.004501 180.909042,171.009003 179.452271,170.646027 
	C178.420563,169.128235 177.800125,167.977890 177.060822,166.514160 
	C173.638397,163.795425 170.334885,161.390091 166.722198,158.936890 
	C165.996658,158.868774 165.580261,158.848495 165.119720,158.498093 
	C164.423386,157.736832 163.771225,157.305679 163.062958,156.545624 
	C162.304581,155.201019 161.602280,154.185364 160.935379,152.811218 
	C160.973129,151.973160 160.975479,151.493607 160.986877,151.008514 
	C160.995895,151.003006 161.013763,150.991241 161.013763,150.991241 
z"/>
<path fill="#FAFBFD" opacity="1.000000" stroke="none" 
	d="
M183.000000,20.539364 
	C181.886398,21.635506 180.772781,22.271011 179.329590,22.953259 
	C179.000000,23.000000 178.999390,22.999249 179.001160,22.597980 
	C179.423965,20.836489 179.714966,19.418230 180.291199,18.127289 
	C181.814682,14.714116 181.203598,12.753967 177.039719,12.609396 
	C177.015198,11.859323 177.006989,11.430520 176.998779,11.001718 
	C178.136429,8.668000 179.777542,7.633524 182.662476,8.968877 
	C183.000000,12.692909 183.000000,16.385818 183.000000,20.539364 
z"/>
<path fill="#FBFBFB" opacity="1.000000" stroke="none" 
	d="
M121.002007,174.997894 
	C118.335732,174.998596 115.657791,174.842926 113.006241,175.040863 
	C109.918739,175.271317 107.769241,174.476608 105.916214,171.678833 
	C104.839348,170.052933 102.300438,169.395401 100.419403,168.302124 
	C100.456223,169.079086 100.493050,169.856049 100.529869,170.633011 
	C98.507591,172.084137 96.644112,174.341278 94.422188,174.779022 
	C91.742325,175.306992 90.164864,173.546295 90.263542,170.156952 
	C90.331749,167.814178 89.261330,163.788803 87.871742,163.388321 
	C84.753181,162.489578 81.913651,164.306030 80.899658,168.076965 
	C80.567513,169.312210 79.146904,170.234177 78.299774,171.356537 
	C77.159096,172.867798 75.788185,174.304276 75.059067,176.005569 
	C73.736992,179.090408 68.887169,180.544357 67.777519,177.758331 
	C65.829361,172.866989 62.819889,173.954025 59.328804,174.899155 
	C58.238003,175.194443 57.008621,174.977859 55.413063,174.646484 
	C54.621281,173.520035 54.259113,172.742706 54.035095,171.695160 
	C54.745060,171.259995 55.316864,171.095047 56.292465,170.936615 
	C60.781616,170.264572 58.273617,166.983597 59.415604,164.913818 
	C61.975044,160.631973 64.575180,156.586380 66.214447,152.183105 
	C67.448456,148.868347 67.582954,145.108429 67.948601,141.520355 
	C68.151123,139.533066 68.583420,136.294983 67.606979,135.674438 
	C62.386303,132.356674 62.962463,127.829880 64.241516,122.820953 
	C64.652802,122.112000 64.821495,121.566231 64.992783,120.691879 
	C64.995819,119.925163 64.996262,119.487045 65.256454,119.045105 
	C65.862411,119.032806 66.208626,119.024315 66.664917,119.377884 
	C67.629631,121.446068 68.484253,123.152199 69.024063,124.914421 
	C68.346123,126.885437 67.982994,128.800354 67.560631,131.027618 
	C70.444321,131.027618 72.708603,131.027618 74.980286,131.401062 
	C75.171837,133.957535 75.356003,136.140549 75.545258,138.383957 
	C76.827530,139.176651 78.547455,140.581116 80.516327,141.337936 
	C81.843437,141.848068 83.847054,144.672348 85.329010,140.970703 
	C86.105331,140.983749 86.548691,141.005508 87.034653,141.337891 
	C87.687004,142.103394 88.296745,142.558289 88.946136,143.341492 
	C88.999649,144.110321 89.013504,144.550858 88.708420,145.043701 
	C88.106895,145.425537 87.824326,145.755020 87.541748,146.084503 
	C93.769485,150.194855 97.547295,156.109665 99.960655,163.371033 
	C100.476891,164.824615 100.899101,166.723557 101.613686,166.840836 
	C104.019608,167.235626 106.529549,166.996582 109.037750,167.362000 
	C110.336952,171.398453 112.947853,172.924042 116.785683,173.097549 
	C118.216843,173.162262 119.598030,174.332031 121.002007,174.997894 
z"/>
<path fill="#68718F" opacity="1.000000" stroke="none" 
	d="
M55.888668,170.930099 
	C55.316864,171.095047 54.745060,171.259995 53.592163,171.712769 
	C41.666367,171.724823 30.321657,171.449081 18.976948,171.173340 
	C17.294443,171.120972 15.611938,171.068619 13.472246,170.510193 
	C12.949036,160.518982 12.810675,151.033722 12.829413,141.548767 
	C12.913996,98.738670 13.043057,55.928661 13.156092,13.118626 
	C13.156092,13.118626 13.034031,13.040291 13.537535,13.086927 
	C28.297615,13.164299 42.554192,13.195035 56.810768,13.225771 
	C56.810768,13.225770 56.945206,13.143508 56.853817,13.610954 
	C56.870338,15.733216 57.075405,17.388231 57.072025,19.042822 
	C56.973610,67.239983 56.866497,115.437141 56.703125,163.634109 
	C56.694878,166.067001 56.171955,168.498138 55.888668,170.930099 
M20.478027,168.711914 
	C30.961624,168.819107 41.445332,168.974442 51.928619,168.950104 
	C52.854290,168.947968 53.777233,167.772507 54.822762,166.188812 
	C54.803097,155.779633 54.783436,145.370438 54.843281,134.032852 
	C54.894962,96.999123 54.958717,59.965405 54.984348,22.931658 
	C54.987888,17.815336 52.345261,15.320686 46.176373,15.051046 
	C44.771561,15.080662 43.366745,15.110277 41.040302,15.057581 
	C36.371708,15.080900 31.703115,15.104219 26.346582,15.054137 
	C25.886395,15.078754 25.426208,15.103372 24.070795,15.058890 
	C15.006595,14.946068 14.993915,14.946085 15.006524,24.044724 
	C15.016674,31.368942 15.062325,38.693111 15.022701,46.950089 
	C14.979409,84.931175 14.904101,122.912338 14.982664,160.893173 
	C14.986809,162.897110 16.294445,164.898346 17.557318,167.200119 
	C18.332586,167.497513 19.107855,167.794907 20.478027,168.711914 
z"/>
<path fill="#FBFCFA" opacity="1.000000" stroke="none" 
	d="
M59.087555,15.991962 
	C62.641998,12.803121 66.009384,11.377888 68.680016,16.970924 
	C68.807213,17.237318 69.165543,17.414465 69.446220,17.583370 
	C76.607414,21.892887 77.377998,23.723133 75.114182,31.076672 
	C72.775490,38.673420 73.025383,39.210209 80.173218,43.382633 
	C81.236259,44.003159 82.062027,45.030163 83.444069,46.269535 
	C84.342010,44.411858 85.014816,43.019947 85.669899,41.664692 
	C87.205032,42.110851 88.727486,42.553322 90.658218,43.031048 
	C91.066490,43.066299 91.136414,43.136227 91.116707,43.500153 
	C89.721642,46.235798 88.346291,48.607521 86.639648,51.041962 
	C82.268944,52.836105 81.305183,59.424805 75.352325,57.877544 
	C75.020729,59.572063 74.729065,61.062519 74.515541,62.153690 
	C73.010132,61.579060 71.178719,60.470623 70.838913,60.818634 
	C69.024857,62.676460 67.583611,64.898300 65.717354,67.120163 
	C64.614487,67.497581 63.807701,67.749092 62.992302,67.597603 
	C62.322353,63.796192 61.661022,60.397793 60.999847,56.530884 
	C61.000050,49.041737 61.000099,42.021095 61.159801,34.681828 
	C62.478027,31.656717 63.899281,29.029163 64.741089,26.227503 
	C66.553360,20.195944 65.641907,19.158758 59.059792,18.616070 
	C59.060612,17.491516 59.074081,16.741739 59.087555,15.991962 
z"/>
<path fill="#2A3F6C" opacity="1.000000" stroke="none" 
	d="
M111.086098,30.049183 
	C111.531044,29.709183 111.975998,29.369183 113.028053,28.916584 
	C117.945427,24.787878 122.255692,20.771769 127.061844,16.826256 
	C139.787231,16.935659 152.016754,16.967688 164.246201,17.016253 
	C170.015961,17.039165 170.015900,17.053537 168.531937,22.989225 
	C168.024292,23.896833 167.859161,24.688540 167.627823,25.531082 
	C167.561615,25.581921 167.437744,25.693857 167.108246,25.503254 
	C165.562225,26.599142 164.345734,27.885633 163.089264,29.116138 
	C163.049286,29.060150 163.170105,29.125994 162.830383,29.114098 
	C161.988007,29.725731 161.485336,30.349262 160.990784,30.987213 
	C160.998901,31.001631 160.971817,30.981478 160.645752,31.003817 
	C159.869827,31.668009 159.419983,32.309860 158.983795,32.976593 
	C158.997421,33.001469 158.950684,32.969158 158.628601,32.992683 
	C157.852234,33.644371 157.397964,34.272530 156.958466,34.942593 
	C156.973236,34.984493 156.897003,34.938873 156.528229,34.930527 
	C154.441284,36.294193 152.723129,37.666214 150.707245,39.231297 
	C147.856110,42.444069 145.499847,45.664513 142.690475,48.423576 
	C140.186707,50.882511 138.091934,54.550732 133.546219,53.030029 
	C135.367722,50.176476 136.990234,47.498096 139.016937,45.171871 
	C142.571762,41.091686 146.225006,37.072655 150.115799,33.316795 
	C153.879257,29.683857 158.055344,26.480944 161.893997,22.920767 
	C162.529221,22.331623 162.363998,20.879429 162.568695,19.826080 
	C161.515396,19.763821 160.451447,19.579336 159.411438,19.669834 
	C158.072281,19.786366 156.579041,20.651615 155.451401,20.281841 
	C146.269684,17.270981 137.343887,18.707260 128.886917,22.389839 
	C125.797493,23.735125 123.816017,27.459074 121.066322,29.787567 
	C116.489037,33.663712 111.699837,37.289612 106.953766,40.705292 
	C106.279541,39.336910 105.651428,38.284126 105.299194,37.030205 
	C107.412094,34.569103 109.249092,32.309143 111.086098,30.049183 
z"/>
<path fill="#DDE2F1" opacity="1.000000" stroke="none" 
	d="
M12.742107,13.155506 
	C13.043057,55.928661 12.913996,98.738670 12.829413,141.548767 
	C12.810675,151.033722 12.949036,160.518982 13.052566,170.467880 
	C11.732502,167.380814 9.190479,163.818237 9.225586,160.281204 
	C9.365948,146.139481 10.742411,132.009476 10.864339,117.868248 
	C11.148249,84.940582 10.947639,52.008873 11.037662,19.079065 
	C11.043029,17.115677 11.878777,15.154559 12.742107,13.155506 
z"/>
<path fill="#E3E8F4" opacity="1.000000" stroke="none" 
	d="
M59.055283,15.627400 
	C59.074081,16.741739 59.060612,17.491516 59.038853,19.083660 
	C59.044075,24.954132 59.057590,29.982237 59.052864,35.477623 
	C59.044830,42.959435 59.055038,49.973957 59.049992,57.457603 
	C59.040482,70.286255 59.046227,82.645790 59.040867,95.473511 
	C59.034325,118.959923 59.038891,141.978149 59.043457,164.996384 
	C58.273617,166.983597 60.781616,170.264572 56.292465,170.936615 
	C56.171955,168.498138 56.694878,166.067001 56.703125,163.634109 
	C56.866497,115.437141 56.973610,67.239983 57.072025,19.042822 
	C57.075405,17.388231 56.870338,15.733216 56.775818,13.622190 
	C57.533810,13.864934 58.278408,14.563886 59.055283,15.627400 
z"/>
<path fill="#F2F5FD" opacity="1.000000" stroke="none" 
	d="
M121.464966,174.998077 
	C119.598030,174.332031 118.216843,173.162262 116.785683,173.097549 
	C112.947853,172.924042 110.336952,171.398453 109.038704,166.954575 
	C109.008492,165.098740 109.015388,164.012329 109.366470,162.979736 
	C112.097588,164.396988 114.484528,165.760391 116.908730,167.509247 
	C116.843193,170.989380 118.801163,171.208908 121.597473,170.923126 
	C128.358231,171.000565 134.659760,171.054367 140.983322,171.416260 
	C141.027145,172.135040 141.048950,172.545731 141.070740,172.956421 
	C134.689804,173.637039 128.308868,174.317642 121.464966,174.998077 
z"/>
<path fill="#E3E8F4" opacity="1.000000" stroke="none" 
	d="
M19.047157,171.487000 
	C30.321657,171.449081 41.666367,171.724823 53.454010,171.982971 
	C54.259113,172.742706 54.621281,173.520035 54.979736,174.642838 
	C47.664497,174.986176 40.351826,175.060287 33.041904,174.950882 
	C29.186817,174.893204 25.318886,174.655914 21.497326,174.176376 
	C20.618475,174.066101 19.906263,172.627792 19.047157,171.487000 
z"/>
<path fill="#EFF5FB" opacity="1.000000" stroke="none" 
	d="
M176.530243,11.000151 
	C177.006989,11.430520 177.015198,11.859323 177.015854,12.636753 
	C177.008301,12.985382 176.962555,13.039565 176.497986,13.030496 
	C159.707870,13.083200 143.382339,13.144975 127.043449,13.131434 
	C127.030106,13.056119 126.996346,12.906916 126.996346,12.906917 
	C128.632416,12.268926 130.263275,11.092915 131.905350,11.077044 
	C146.623016,10.934795 161.342667,10.996703 176.530243,11.000151 
z"/>
<path fill="#F4F7FD" opacity="1.000000" stroke="none" 
	d="
M174.008209,173.037430 
	C173.545929,173.651810 173.133881,174.753922 172.613876,174.807449 
	C164.742279,175.617920 156.865067,176.488632 148.966904,176.828888 
	C147.388367,176.896912 145.717316,174.818130 144.514832,173.344849 
	C154.629883,172.986130 164.319046,173.011780 174.008209,173.037430 
z"/>
<path fill="#DDE2F1" opacity="1.000000" stroke="none" 
	d="
M56.804909,12.804596 
	C42.554192,13.195035 28.297615,13.164299 13.580860,13.145079 
	C13.985380,12.430213 14.844470,11.078986 15.715614,11.071170 
	C28.800484,10.953761 41.887070,10.995076 54.972614,11.088456 
	C55.584476,11.092822 56.190376,11.932673 56.804909,12.804596 
z"/>
<path fill="#D4DAEE" opacity="1.000000" stroke="none" 
	d="
M126.565964,16.755659 
	C122.255692,20.771769 117.945427,24.787878 113.295135,28.811165 
	C113.221703,25.307795 111.913147,21.250648 116.999123,19.049292 
	C120.149429,16.962276 122.603523,14.996876 125.057625,13.031474 
	C125.489578,13.018674 125.921532,13.005875 126.674911,12.949995 
	C126.996346,12.906916 127.030106,13.056119 127.039749,13.433096 
	C127.038498,14.215967 127.027603,14.621863 126.869492,15.292376 
	C126.670174,15.956548 126.618073,16.356104 126.565964,16.755659 
z"/>
<path fill="#D0D7E8" opacity="1.000000" stroke="none" 
	d="
M174.402893,173.022980 
	C164.319046,173.011780 154.629883,172.986130 144.472595,172.966431 
	C143.270050,172.966705 142.535645,172.961029 141.435974,172.955887 
	C141.048950,172.545731 141.027145,172.135040 141.449814,171.339355 
	C152.140701,170.993576 162.387466,170.995956 172.633286,171.095779 
	C175.486969,171.123566 177.681198,170.734512 177.000122,167.002014 
	C177.059479,166.943344 177.179703,166.827560 177.179703,166.827560 
	C177.800125,167.977890 178.420563,169.128235 179.060303,170.653748 
	C177.652267,171.688797 176.224915,172.348648 174.402893,173.022980 
z"/>
<path fill="#FBFBF8" opacity="1.000000" stroke="none" 
	d="
M91.005524,29.962833 
	C92.359215,27.287266 93.674988,24.991428 94.990768,22.695591 
	C95.770569,22.985266 96.550377,23.274940 97.330177,23.564615 
	C96.480026,27.710402 95.943214,31.965162 94.565262,35.927395 
	C94.208931,36.952019 91.214767,37.059277 89.432281,37.587925 
	C89.504112,36.037285 89.437370,34.462696 89.699631,32.944965 
	C89.857437,32.031731 90.527657,31.207043 91.005524,29.962833 
z"/>
<path fill="#D5DDEB" opacity="1.000000" stroke="none" 
	d="
M110.773094,29.911251 
	C109.249092,32.309143 107.412094,34.569103 104.952049,37.029884 
	C101.883545,38.810604 99.438072,40.390499 97.006485,41.603519 
	C97.039696,40.503700 97.059029,39.770763 97.078362,39.037823 
	C98.797829,37.029301 100.517296,35.020775 102.236755,33.012253 
	C101.949944,32.793106 101.663124,32.573959 101.376312,32.354816 
	C104.404236,31.494316 107.432167,30.633816 110.773094,29.911251 
z"/>
<path fill="#F7F9FC" opacity="1.000000" stroke="none" 
	d="
M124.634232,13.020205 
	C122.603523,14.996876 120.149429,16.962276 117.352440,18.981853 
	C116.505005,13.556068 119.819145,12.638758 124.634232,13.020205 
z"/>
<path fill="#FBFCFA" opacity="1.000000" stroke="none" 
	d="
M96.721039,39.077469 
	C97.059029,39.770763 97.039696,40.503700 96.775772,41.705261 
	C96.351768,42.447906 96.172356,42.721928 95.585632,43.022537 
	C93.831032,43.078159 92.483719,43.107193 91.136414,43.136227 
	C91.136414,43.136227 91.066490,43.066299 91.031555,43.031235 
	C92.785645,41.703148 94.574677,40.410133 96.721039,39.077469 
z"/>
<path fill="#FBFBF8" opacity="1.000000" stroke="none" 
	d="
M97.954651,20.603081 
	C97.713989,20.208500 97.715744,19.815992 97.745895,19.425680 
	C97.746735,19.414728 98.050957,19.427206 98.213715,19.428757 
	C98.209496,19.820992 98.205269,20.213228 97.954651,20.603081 
z"/>
<path fill="#FBFBF8" opacity="1.000000" stroke="none" 
	d="
M92.602570,20.045437 
	C92.208282,20.285921 91.816101,20.284166 91.426102,20.254019 
	C91.415131,20.253170 91.427597,19.949167 91.429138,19.786524 
	C91.821091,19.790756 92.213028,19.794989 92.602570,20.045437 
z"/>
<path fill="#FCFBF6" opacity="1.000000" stroke="none" 
	d="
M138.999390,125.000916 
	C140.975189,122.756210 140.618134,121.630112 137.964798,119.798126 
	C136.864059,119.038109 136.253525,117.568077 135.420059,116.420937 
	C136.818893,116.469650 138.230850,116.415062 139.613617,116.590469 
	C141.877869,116.877701 144.123138,117.314507 146.723877,117.745857 
	C146.245010,119.755310 145.017639,122.027687 145.447601,123.924370 
	C145.863678,125.759720 147.985504,127.208382 149.458496,128.945251 
	C150.852753,127.849686 151.950226,126.987312 152.685562,126.409492 
	C155.611206,128.466446 158.169418,130.265091 161.406876,132.541275 
	C161.432114,132.391891 161.020691,133.347137 161.196243,134.178452 
	C161.397781,135.132889 162.119400,135.977493 162.615112,136.869797 
	C163.374649,136.395493 164.532394,136.094345 164.826645,135.417709 
	C166.316589,131.991333 167.497589,131.806229 169.157578,135.348434 
	C169.622314,136.340134 171.218933,136.740479 172.098801,137.611603 
	C173.794632,139.290604 176.387299,140.943512 176.707275,142.915649 
	C177.132599,145.537125 175.740891,148.453415 175.129822,151.243027 
	C172.566803,150.574890 169.996170,149.934464 167.443207,149.229935 
	C165.371735,148.658249 163.768234,145.030396 160.747955,148.644775 
	C159.949081,148.981476 159.529587,148.965256 159.077362,148.718536 
	C159.044662,148.488037 158.982788,148.025940 158.977493,147.655472 
	C155.007278,139.973465 147.004776,137.749588 140.669205,133.008347 
	C139.914581,132.981659 139.483978,132.963562 138.993057,132.635681 
	C138.310974,131.861526 137.689209,131.397171 137.043442,130.611145 
	C137.004349,129.859650 136.989273,129.429840 137.334335,128.934509 
	C138.129440,127.579636 138.564423,126.290276 138.999390,125.000916 
z"/>
<path fill="#F8FAFB" opacity="1.000000" stroke="none" 
	d="
M164.999390,41.000305 
	C164.328369,43.998032 163.883820,47.074879 162.877472,49.955452 
	C162.461273,51.146774 160.879074,52.698807 159.762238,52.753178 
	C152.268982,53.117981 152.021255,59.377720 150.000458,64.611160 
	C146.630768,65.941315 143.296967,67.049850 139.881760,67.774986 
	C136.808258,68.427559 133.541946,68.320038 130.567627,69.226677 
	C129.172699,69.651894 128.365952,71.785141 127.105453,72.939987 
	C126.011856,73.941925 124.654297,74.655739 123.149376,74.910736 
	C122.573181,71.840714 122.260994,69.356842 122.048996,66.612679 
	C122.500938,65.937035 122.852699,65.521683 123.505020,65.118713 
	C124.204132,65.097198 124.602684,65.063309 125.028671,65.359909 
	C127.942101,65.014328 131.496567,66.290306 133.218506,62.291409 
	C133.816071,60.903641 135.708725,60.073540 137.057220,59.260071 
	C137.390045,59.847553 137.675507,60.163692 137.960983,60.479832 
	C138.131348,60.281769 138.301712,60.083706 138.472092,59.885643 
	C137.977615,59.593719 137.483154,59.301792 137.023041,58.668762 
	C140.336014,54.908401 143.545334,51.418713 146.920578,48.097637 
	C148.794205,46.254082 150.944809,44.692043 153.368652,43.003025 
	C155.200897,44.165421 156.651352,45.308582 158.062851,46.497974 
	C158.850220,47.161438 159.572815,47.901752 160.324600,48.607426 
	C160.874512,47.686810 161.936630,46.725674 161.867676,45.854031 
	C161.724442,44.043488 160.981323,42.280403 160.360260,40.050625 
	C162.208313,40.428944 163.603851,40.714622 164.999390,41.000305 
z"/>
<path fill="#E2E7F3" opacity="1.000000" stroke="none" 
	d="
M136.974182,129.000015 
	C136.989273,129.429840 137.004349,129.859650 136.937485,130.720047 
	C136.855545,131.150620 136.644241,131.369003 136.362595,131.401001 
	C135.372742,131.698318 134.664536,131.963638 133.650665,132.058319 
	C124.565193,124.258560 115.785393,116.629440 107.079636,108.638153 
	C106.471634,107.794930 105.789589,107.313873 105.092072,106.882248 
	C105.076599,106.931664 105.170174,106.887268 105.152649,106.536758 
	C104.449547,105.748436 103.763962,105.310623 103.068939,104.898666 
	C103.059509,104.924522 103.108803,104.894943 103.097382,104.537453 
	C101.622223,102.502342 100.158478,100.824722 98.694733,99.147102 
	C103.970131,98.000580 108.905350,99.543999 110.909851,104.245140 
	C114.720001,113.181091 123.149818,115.542336 129.533783,119.370583 
	C129.843048,121.579063 130.071640,123.211479 130.683533,125.208008 
	C132.042389,125.715828 133.017944,125.859543 133.993515,126.003250 
	C133.993515,126.003250 134.490921,126.021072 134.747681,126.378288 
	C135.661026,127.490341 136.317596,128.245178 136.974182,129.000015 
z"/>
<path fill="#314572" opacity="1.000000" stroke="none" 
	d="
M98.441582,99.087433 
	C100.158478,100.824722 101.622223,102.502342 102.714035,104.573334 
	C101.226234,105.644783 100.110374,106.322853 98.658882,106.946793 
	C96.315392,105.004036 94.161453,103.245399 92.336258,101.194237 
	C89.998489,98.567039 90.506493,91.370323 92.988602,89.356033 
	C93.383362,90.497063 93.767883,91.285202 94.088196,92.445580 
	C95.245712,94.592201 96.467438,96.366585 97.689171,98.140968 
	C97.855591,98.436562 98.022011,98.732162 98.441582,99.087433 
z"/>
<path fill="#E2E7F3" opacity="1.000000" stroke="none" 
	d="
M121.948807,66.872971 
	C122.260994,69.356842 122.573181,71.840714 122.933517,74.639603 
	C120.550247,76.276642 118.118828,77.598663 115.687408,78.920685 
	C115.789780,79.099655 115.892159,79.278625 115.994537,79.457596 
	C113.308495,80.670448 110.622459,81.883301 107.478218,83.053970 
	C107.020020,83.011787 106.830658,82.832382 106.844727,82.474503 
	C111.888802,77.035408 116.918808,71.954185 121.948807,66.872971 
z"/>
<path fill="#E2E7F3" opacity="1.000000" stroke="none" 
	d="
M98.033997,97.983887 
	C96.467438,96.366585 95.245712,94.592201 94.450073,92.408188 
	C96.513779,90.822144 98.186256,89.690842 99.780800,88.458694 
	C102.159584,86.620567 104.483437,84.711357 106.830658,82.832382 
	C106.830658,82.832382 107.020020,83.011787 107.119102,83.099411 
	C107.169502,86.940186 106.528603,89.914162 102.167099,91.516106 
	C100.373657,92.174812 99.610580,95.638824 98.033997,97.983887 
z"/>
<path fill="#E9ECF5" opacity="1.000000" stroke="none" 
	d="
M137.334320,128.934509 
	C136.317596,128.245178 135.661026,127.490341 134.996368,126.387573 
	C136.296555,125.495300 137.604797,124.950951 138.956223,124.703751 
	C138.564423,126.290276 138.129440,127.579636 137.334320,128.934509 
z"/>
<path fill="#E9ECF5" opacity="1.000000" stroke="none" 
	d="
M133.870941,125.712509 
	C133.017944,125.859543 132.042389,125.715828 131.026611,125.264786 
	C131.286789,124.449562 131.587173,123.941658 131.887543,123.433754 
	C132.507812,124.096428 133.128098,124.759094 133.870941,125.712509 
z"/>
<path fill="#E9ECF5" opacity="1.000000" stroke="none" 
	d="
M159.110077,148.949036 
	C159.529587,148.965256 159.949081,148.981476 160.683960,148.997742 
	C161.000275,149.441086 161.001221,149.884384 161.007965,150.659454 
	C161.013763,150.991241 160.995895,151.003006 160.632767,151.004456 
	C159.798187,151.046783 159.326721,151.087662 158.933685,151.089157 
	C159.012085,151.049774 158.867447,151.150177 158.914703,150.783722 
	C159.011337,149.927841 159.060699,149.438446 159.110077,148.949036 
z"/>
<path fill="#FAFBFD" opacity="1.000000" stroke="none" 
	d="
M165.037933,40.643295 
	C163.603851,40.714622 162.208313,40.428944 160.360260,40.050625 
	C160.981323,42.280403 161.724442,44.043488 161.867676,45.854031 
	C161.936630,46.725674 160.874512,47.686810 160.324600,48.607426 
	C159.572815,47.901752 158.850220,47.161438 158.062851,46.497974 
	C156.651352,45.308582 155.200897,44.165421 153.423309,42.650414 
	C156.381897,39.197056 159.683899,36.096214 163.403870,32.995804 
	C165.660812,32.559669 167.879776,32.628223 169.263931,31.587009 
	C172.711548,28.993586 175.779205,25.895021 178.999390,22.999249 
	C178.999390,22.999249 179.000000,23.000000 179.000916,23.000986 
	C178.831970,26.671036 179.143906,30.464216 178.246979,33.945988 
	C177.904602,35.275093 174.433121,37.052479 173.010773,36.612251 
	C168.856216,35.326382 166.701843,36.865047 165.037933,40.643295 
z"/>
<path fill="#D0D7E8" opacity="1.000000" stroke="none" 
	d="
M167.031372,158.984756 
	C170.334885,161.390091 173.638397,163.795425 177.060822,166.514160 
	C177.179703,166.827560 177.059479,166.943344 176.659637,166.980804 
	C175.807373,167.059891 175.354950,167.101532 174.591141,166.974396 
	C171.821609,164.887344 169.363495,162.969086 166.983398,160.711929 
	C167.051392,159.910278 167.041382,159.447525 167.031372,158.984756 
z"/>
<path fill="#5A688F" opacity="1.000000" stroke="none" 
	d="
M160.899979,153.169693 
	C161.602280,154.185364 162.304581,155.201019 162.965607,156.648224 
	C162.924362,157.079742 162.729538,157.284821 162.382675,157.212708 
	C159.051483,154.387634 156.067139,151.634705 153.449371,148.881958 
	C155.499756,149.638153 157.183609,150.394165 158.867447,151.150177 
	C158.867447,151.150177 159.012085,151.049774 158.952499,151.427597 
	C159.561935,152.260178 160.230957,152.714935 160.899979,153.169693 
z"/>
<path fill="#C7CFE8" opacity="1.000000" stroke="none" 
	d="
M160.935379,152.811218 
	C160.230957,152.714935 159.561935,152.260178 158.874084,151.466980 
	C159.326721,151.087662 159.798187,151.046783 160.623749,151.009979 
	C160.975479,151.493607 160.973129,151.973160 160.935379,152.811218 
z"/>
<path fill="#5A688F" opacity="1.000000" stroke="none" 
	d="
M163.021698,156.977142 
	C163.771225,157.305679 164.423386,157.736832 165.017273,158.602646 
	C164.958984,159.037323 164.752365,159.244339 164.469391,159.143433 
	C163.700806,158.456619 163.215164,157.870728 162.729538,157.284821 
	C162.729538,157.284821 162.924362,157.079742 163.021698,156.977142 
z"/>
<path fill="#5A688F" opacity="1.000000" stroke="none" 
	d="
M166.722198,158.936890 
	C167.041382,159.447525 167.051392,159.910278 166.662949,160.717163 
	C165.837662,161.042908 165.410843,161.024536 164.965271,160.709076 
	C164.881790,160.022766 164.817078,159.633560 164.752365,159.244339 
	C164.752365,159.244339 164.958984,159.037323 165.061432,158.932770 
	C165.580261,158.848495 165.996658,158.868774 166.722198,158.936890 
z"/>
<path fill="#EFF1FA" opacity="1.000000" stroke="none" 
	d="
M179.001160,22.597980 
	C175.779205,25.895021 172.711548,28.993586 169.263931,31.587009 
	C167.879776,32.628223 165.660812,32.559669 163.410004,32.659622 
	C162.996002,31.874607 162.993805,31.426199 163.101074,30.681202 
	C163.197067,29.965071 163.183578,29.545532 163.170105,29.125994 
	C163.170105,29.125994 163.049286,29.060150 163.442184,29.136391 
	C165.035965,28.039707 166.236862,26.866781 167.437744,25.693855 
	C167.437744,25.693857 167.561615,25.581921 167.828796,25.434689 
	C168.335541,25.096592 168.606354,24.975687 169.247437,24.943676 
	C170.079086,24.338270 170.571671,23.713930 171.045685,23.053478 
	C171.027115,23.017368 171.091476,23.066921 171.454025,23.043493 
	C173.475998,20.960978 177.954514,21.368380 177.014832,17.034767 
	C176.993317,17.015440 177.049683,17.027384 177.360657,16.996536 
	C177.981705,16.526327 178.291748,16.086962 178.601807,15.647596 
	C178.048691,15.451498 177.495590,15.255400 176.971237,15.029688 
	C177.000000,15.000076 176.940002,15.057011 176.970001,14.721165 
	C176.987518,13.936734 176.975037,13.488150 176.962555,13.039565 
	C176.962555,13.039565 177.008301,12.985382 177.032166,12.958024 
	C181.203598,12.753967 181.814682,14.714116 180.291199,18.127289 
	C179.714966,19.418230 179.423965,20.836489 179.001160,22.597980 
z"/>
<path fill="#FAFCFD" opacity="1.000000" stroke="none" 
	d="
M59.415604,164.913818 
	C59.038891,141.978149 59.034325,118.959923 59.403618,95.394211 
	C60.851337,91.034363 62.456051,87.278236 62.867355,83.395683 
	C63.405453,78.316277 63.000301,73.136955 63.000916,68.000610 
	C63.807701,67.749092 64.614487,67.497581 66.061989,67.122787 
	C67.240570,67.526505 67.778442,68.053505 68.316315,68.580505 
	C63.599548,71.200813 65.117867,75.738083 65.049950,79.675888 
	C64.915878,87.449081 65.030724,95.226578 65.032501,103.462280 
	C64.427605,108.017097 63.710121,112.100754 63.335457,116.215622 
	C63.254723,117.102280 64.410500,118.101532 64.996704,119.048920 
	C64.996262,119.487045 64.995819,119.925163 64.703979,120.721207 
	C64.274689,121.714127 64.136810,122.349136 63.998932,122.984146 
	C62.962463,127.829880 62.386303,132.356674 67.606979,135.674438 
	C68.583420,136.294983 68.151123,139.533066 67.948601,141.520355 
	C67.582954,145.108429 67.448456,148.868347 66.214447,152.183105 
	C64.575180,156.586380 61.975044,160.631973 59.415604,164.913818 
z"/>
<path fill="#F2F8FC" opacity="1.000000" stroke="none" 
	d="
M100.000610,163.000000 
	C97.547295,156.109665 93.769485,150.194855 87.541748,146.084503 
	C87.824326,145.755020 88.106895,145.425537 89.102417,145.043564 
	C90.871239,144.995178 91.927109,144.999283 93.167419,145.278458 
	C94.219894,146.428253 95.087944,147.302994 96.096268,148.492981 
	C98.665291,151.384567 101.133530,153.925186 103.506805,156.551636 
	C104.773918,157.953934 105.877098,159.504364 106.683380,161.029846 
	C104.208527,161.714478 102.104568,162.357239 100.000610,163.000000 
z"/>
<path fill="#F1F6FB" opacity="1.000000" stroke="none" 
	d="
M84.996033,140.979401 
	C83.847054,144.672348 81.843437,141.848068 80.516327,141.337936 
	C78.547455,140.581116 76.827530,139.176651 75.545258,138.383957 
	C75.356003,136.140549 75.171837,133.957535 75.011314,131.371063 
	C75.034950,130.967606 75.097443,130.908066 75.431580,130.977783 
	C78.137184,132.466446 80.508644,133.885361 82.957016,135.584808 
	C83.620468,136.319397 84.207016,136.773453 84.788345,137.525650 
	C84.854095,138.875656 84.925064,139.927521 84.996033,140.979401 
z"/>
<path fill="#FBFEFE" opacity="1.000000" stroke="none" 
	d="
M99.960655,163.371033 
	C102.104568,162.357239 104.208527,161.714478 106.803223,161.288269 
	C107.870071,161.978500 108.446182,162.452194 109.022285,162.925903 
	C109.015388,164.012329 109.008492,165.098740 109.000648,166.592590 
	C106.529549,166.996582 104.019608,167.235626 101.613686,166.840836 
	C100.899101,166.723557 100.476891,164.824615 99.960655,163.371033 
z"/>
<path fill="#E3E8F4" opacity="1.000000" stroke="none" 
	d="
M65.256454,119.045105 
	C64.410500,118.101532 63.254723,117.102280 63.335457,116.215622 
	C63.710121,112.100754 64.427605,108.017097 65.332230,103.461517 
	C66.042877,103.000359 66.443642,102.999947 66.914688,103.461731 
	C67.012871,108.941132 67.040787,113.958336 66.937286,118.947968 
	C66.805862,118.920387 66.554832,119.015831 66.554832,119.015831 
	C66.208626,119.024315 65.862411,119.032806 65.256454,119.045105 
z"/>
<path fill="#F1F6FB" opacity="1.000000" stroke="none" 
	d="
M75.003922,130.997620 
	C72.708603,131.027618 70.444321,131.027618 67.560631,131.027618 
	C67.982994,128.800354 68.346123,126.885437 69.347755,124.970566 
	C71.592361,125.753326 73.198456,126.536049 74.849586,127.675583 
	C74.962234,128.990952 75.029839,129.949509 75.097443,130.908066 
	C75.097443,130.908066 75.034950,130.967606 75.003922,130.997620 
z"/>
<path fill="#B1B3CA" opacity="1.000000" stroke="none" 
	d="
M74.804550,127.318771 
	C73.198456,126.536049 71.592361,125.753326 69.662567,124.914459 
	C68.484253,123.152199 67.629631,121.446068 66.664917,119.377884 
	C66.554832,119.015831 66.805862,118.920387 67.280876,119.034271 
	C69.140755,119.846054 70.525620,120.543938 71.969818,121.449875 
	C72.202484,121.915230 72.443474,122.059311 72.800034,122.452164 
	C73.587135,124.175430 74.326347,125.536720 75.007835,127.007874 
	C74.950111,127.117729 74.804550,127.318771 74.804550,127.318771 
z"/>
<path fill="#D3DCEA" opacity="1.000000" stroke="none" 
	d="
M85.329010,140.970703 
	C84.925064,139.927521 84.854095,138.875656 84.865448,137.441452 
	C84.947769,137.059128 85.105713,136.894257 85.453644,136.931900 
	C86.923904,138.257050 88.046227,139.544556 89.070236,140.929642 
	C88.971931,141.027222 88.774963,141.222031 88.483337,141.154022 
	C87.791817,141.066422 87.391930,141.046844 86.992043,141.027267 
	C86.548691,141.005508 86.105331,140.983749 85.329010,140.970703 
z"/>
<path fill="#D3DCEA" opacity="1.000000" stroke="none" 
	d="
M92.982986,145.003387 
	C91.927109,144.999283 90.871239,144.995178 89.421356,144.991241 
	C89.013504,144.550858 88.999649,144.110321 88.952438,143.040253 
	C88.871048,142.014465 88.823006,141.618256 88.774963,141.222031 
	C88.774963,141.222031 88.971931,141.027222 89.372238,140.941986 
	C90.171059,140.910660 90.569565,140.964554 91.017944,141.366394 
	C91.706207,142.810684 92.344597,143.907028 92.982986,145.003387 
z"/>
<path fill="#E3E8F4" opacity="1.000000" stroke="none" 
	d="
M64.241516,122.820953 
	C64.136810,122.349136 64.274689,121.714127 64.701385,121.049789 
	C64.821495,121.566231 64.652802,122.112000 64.241516,122.820953 
z"/>
<path fill="#F2F8FC" opacity="1.000000" stroke="none" 
	d="
M88.483337,141.154022 
	C88.823006,141.618256 88.871048,142.014465 88.912788,142.711945 
	C88.296745,142.558289 87.687004,142.103394 87.034653,141.337891 
	C87.391930,141.046844 87.791817,141.066422 88.483337,141.154022 
z"/>
<path fill="#2A3B69" opacity="1.000000" stroke="none" 
	d="
M47.017963,15.140800 
	C52.345261,15.320686 54.987888,17.815336 54.984348,22.931658 
	C54.958717,59.965405 54.894962,96.999123 54.437317,134.626953 
	C53.689232,136.744247 53.067154,138.264465 53.050991,139.791107 
	C52.954998,148.856094 52.999298,157.922592 52.806770,167.233765 
	C51.403549,167.304489 50.190002,167.130035 49.034443,166.632751 
	C49.723587,165.206207 50.354744,164.102493 50.991070,162.530212 
	C50.999111,116.098656 51.012890,70.135628 50.962498,24.172682 
	C50.960602,22.444452 50.335930,20.716908 49.950523,18.656403 
	C48.939037,17.262775 47.978500,16.201788 47.017963,15.140800 
z"/>
<path fill="#202D59" opacity="1.000000" stroke="none" 
	d="
M16.995253,166.900848 
	C16.294445,164.898346 14.986809,162.897110 14.982664,160.893173 
	C14.904101,122.912338 14.979409,84.931175 15.373829,46.477936 
	C16.148254,46.005157 16.571552,46.004528 16.995274,46.472115 
	C17.006683,56.632942 17.017670,66.325554 17.023655,76.485657 
	C17.017557,106.631920 17.016459,136.310699 17.007959,166.217255 
	C17.000559,166.445053 16.995253,166.900848 16.995253,166.900848 
z"/>
<path fill="#263862" opacity="1.000000" stroke="none" 
	d="
M16.994850,46.003902 
	C16.571552,46.004528 16.148254,46.005157 15.408590,46.011543 
	C15.062325,38.693111 15.016674,31.368942 15.006524,24.044724 
	C14.993915,14.946085 15.006595,14.946068 24.444107,15.447339 
	C22.884533,16.897434 20.951647,17.959082 19.010971,19.349058 
	C18.997423,20.115677 18.991665,20.553965 18.591164,21.087641 
	C17.797775,22.675470 17.082726,24.162022 17.054815,25.661364 
	C16.928621,32.440231 16.996725,39.222717 16.994850,46.003902 
z"/>
<path fill="#273F6E" opacity="1.000000" stroke="none" 
	d="
M19.018759,19.020727 
	C20.951647,17.959082 22.884533,16.897434 24.891720,15.481888 
	C25.426208,15.103372 25.886395,15.078754 26.783051,15.472368 
	C31.166307,16.258701 35.108444,16.759308 39.063282,16.898239 
	C40.007740,16.931419 40.994583,15.758228 41.961933,15.139893 
	C43.366745,15.110277 44.771561,15.080662 46.597168,15.095922 
	C47.978500,16.201788 48.939037,17.262775 49.512882,18.660389 
	C47.084244,18.999765 45.042294,19.002512 42.571693,19.003330 
	C40.427540,19.007278 38.712040,19.013157 36.528847,19.014345 
	C30.380352,19.013346 24.699556,19.017036 19.018759,19.020727 
z"/>
<path fill="#1F264C" opacity="1.000000" stroke="none" 
	d="
M48.976456,166.955582 
	C50.190002,167.130035 51.403549,167.304489 53.092316,167.252563 
	C53.945507,167.064789 54.323479,167.103409 54.701447,167.142014 
	C53.777233,167.772507 52.854290,168.947968 51.928619,168.950104 
	C41.445332,168.974442 30.961624,168.819107 20.401611,168.127335 
	C21.224791,167.347061 22.124386,167.151367 23.479025,166.966965 
	C27.282307,166.972275 30.630545,166.966293 34.418915,166.978058 
	C36.913422,166.982224 38.967793,166.968674 41.464188,166.963684 
	C44.262959,166.966705 46.619709,166.961136 48.976456,166.955582 
z"/>
<path fill="#39466F" opacity="1.000000" stroke="none" 
	d="
M54.762104,166.665405 
	C54.323479,167.103409 53.945507,167.064789 53.281998,167.007385 
	C52.999298,157.922592 52.954998,148.856094 53.050991,139.791107 
	C53.067154,138.264465 53.689232,136.744247 54.397564,135.091156 
	C54.783436,145.370438 54.803097,155.779633 54.762104,166.665405 
z"/>
<path fill="#263862" opacity="1.000000" stroke="none" 
	d="
M41.501118,15.098736 
	C40.994583,15.758228 40.007740,16.931419 39.063282,16.898239 
	C35.108444,16.759308 31.166307,16.258701 27.127020,15.509069 
	C31.703115,15.104219 36.371708,15.080900 41.501118,15.098736 
z"/>
<path fill="#2A3B69" opacity="1.000000" stroke="none" 
	d="
M23.023981,166.955673 
	C22.124386,167.151367 21.224791,167.347061 20.104160,167.817535 
	C19.107855,167.794907 18.332586,167.497513 17.276285,167.050476 
	C16.995253,166.900848 17.000559,166.445053 17.377453,166.181030 
	C19.634171,165.637772 21.913095,163.333771 23.023981,166.955673 
z"/>
<path fill="#E5EAF3" opacity="1.000000" stroke="none" 
	d="
M66.844414,102.999527 
	C66.443642,102.999947 66.042877,103.000359 65.342377,103.001526 
	C65.030724,95.226578 64.915878,87.449081 65.049950,79.675888 
	C65.117867,75.738083 63.599548,71.200813 68.316315,68.580505 
	C67.778442,68.053505 67.240570,67.526505 66.358070,66.996872 
	C67.583611,64.898300 69.024857,62.676460 70.838913,60.818634 
	C71.178719,60.470623 73.010132,61.579060 74.515541,62.153690 
	C74.729065,61.062519 75.020729,59.572063 75.352325,57.877544 
	C81.305183,59.424805 82.268944,52.836105 86.646118,51.392738 
	C87.002090,52.147732 87.020309,52.614674 86.966660,53.422546 
	C86.758614,54.043880 86.683586,54.383720 86.477310,54.596001 
	C81.224625,60.001389 75.958206,65.393425 70.308968,70.767700 
	C68.953911,72.780006 67.232178,74.780769 67.145103,76.850311 
	C66.778877,85.555519 66.901024,94.281288 66.844414,102.999527 
z"/>
<path fill="#F4FBFD" opacity="1.000000" stroke="none" 
	d="
M62.992302,67.597603 
	C63.000301,73.136955 63.405453,78.316277 62.867355,83.395683 
	C62.456051,87.278236 60.851337,91.034363 59.414719,94.926025 
	C59.046227,82.645790 59.040482,70.286255 59.371590,57.461803 
	C60.138863,56.997719 60.569279,56.998554 60.999695,56.999390 
	C61.661022,60.397793 62.322353,63.796192 62.992302,67.597603 
z"/>
<path fill="#F7FBFA" opacity="1.000000" stroke="none" 
	d="
M59.071106,35.010342 
	C59.057590,29.982237 59.044075,24.954132 59.051506,19.458437 
	C65.641907,19.158758 66.553360,20.195944 64.741089,26.227503 
	C63.899281,29.029163 62.478027,31.656717 60.837852,34.681965 
	C59.927872,35.003937 59.499485,35.007141 59.071106,35.010342 
z"/>
<path fill="#FAFCFD" opacity="1.000000" stroke="none" 
	d="
M59.052864,35.477623 
	C59.499485,35.007141 59.927872,35.003937 60.678204,35.000595 
	C61.000099,42.021095 61.000050,49.041737 60.999847,56.530884 
	C60.569279,56.998554 60.138863,56.997719 59.386848,56.992683 
	C59.055038,49.973957 59.044830,42.959435 59.052864,35.477623 
z"/>
<path fill="#C6CEE3" opacity="1.000000" stroke="none" 
	d="
M87.038536,53.081612 
	C87.020309,52.614674 87.002090,52.147732 86.977402,51.330017 
	C88.346291,48.607521 89.721642,46.235798 91.116707,43.500153 
	C92.483719,43.107193 93.831032,43.078159 95.688751,43.392937 
	C93.145622,46.851700 90.092079,49.966656 87.038536,53.081612 
z"/>
<path fill="#244A7F" opacity="1.000000" stroke="none" 
	d="
M92.978363,89.003151 
	C90.506493,91.370323 89.998489,98.567039 92.336258,101.194237 
	C94.161453,103.245399 96.315392,105.004036 98.661568,106.946480 
	C98.999886,107.000305 98.999359,107.005203 99.042236,107.324814 
	C99.723976,108.095169 100.362831,108.545921 101.000839,108.998337 
	C101.000000,109.000000 101.003319,108.998314 101.044449,109.318146 
	C101.721977,110.089264 102.358360,110.540543 103.327866,110.998245 
	C104.105125,111.013458 104.549271,111.022255 105.038055,111.346428 
	C105.713890,112.112892 106.345085,112.563980 107.045517,113.363426 
	C111.606209,117.676979 116.107796,121.630875 120.567024,125.631989 
	C120.874641,125.908005 120.866249,126.536194 121.050346,127.329414 
	C121.729668,128.771942 122.363457,129.885666 122.622192,130.958786 
	C117.635361,131.523880 112.976418,131.907974 108.441231,132.873413 
	C107.119583,133.154755 105.346687,134.989883 105.175888,136.295319 
	C104.716331,139.807907 105.009857,143.419006 104.669937,146.990616 
	C103.889694,146.979904 103.443939,146.969574 102.945923,146.629089 
	C102.243820,145.177490 101.593987,144.056076 100.910355,142.629944 
	C100.268188,141.902252 99.659821,141.479263 99.025040,141.028839 
	C98.998642,141.001434 98.943794,140.948654 98.911728,140.642548 
	C98.271553,139.909851 97.663445,139.483261 97.027740,139.028168 
	C97.000145,138.999649 96.942909,138.944672 96.911224,138.641754 
	C96.281410,137.915558 95.683289,137.492279 94.748856,137.005615 
	C93.272255,135.630173 92.131958,134.318130 90.945160,132.673508 
	C89.599869,131.226578 88.301086,130.112213 86.951469,128.666473 
	C85.601898,127.222000 84.303162,126.108925 83.002449,124.615120 
	C81.358452,120.266937 80.536888,115.588730 74.999130,114.538429 
	C74.999886,112.127464 75.259224,110.129143 74.924644,108.235794 
	C74.606209,106.433853 73.667519,104.741524 73.001434,102.536682 
	C73.665237,92.379532 74.329140,82.686714 75.049118,72.654724 
	C79.068916,68.541893 83.032639,64.768227 87.401779,60.998222 
	C91.511322,62.124435 92.008728,64.063522 89.683716,67.189453 
	C88.697174,68.515831 88.236435,70.233284 87.536720,71.773003 
	C89.244156,72.515198 90.889435,73.628761 92.671181,73.927010 
	C97.241379,74.692017 98.890617,72.027733 99.002342,67.886208 
	C99.172348,61.584621 96.927261,55.153561 100.282196,48.800648 
	C102.708542,46.070515 104.854210,43.545704 106.999878,41.020889 
	C111.699837,37.289612 116.489037,33.663712 121.066322,29.787567 
	C123.816017,27.459074 125.797493,23.735125 128.886917,22.389839 
	C137.343887,18.707260 146.269684,17.270981 155.451401,20.281841 
	C156.579041,20.651615 158.072281,19.786366 159.411438,19.669834 
	C160.451447,19.579336 161.515396,19.763821 162.568695,19.826080 
	C162.363998,20.879429 162.529221,22.331623 161.893997,22.920767 
	C158.055344,26.480944 153.879257,29.683857 150.115799,33.316795 
	C146.225006,37.072655 142.571762,41.091686 139.016937,45.171871 
	C136.990234,47.498096 135.367722,50.176476 133.522186,53.010128 
	C133.481171,53.323978 133.423187,53.310837 133.006805,53.215981 
	C127.437035,56.251022 122.258484,59.341545 117.178162,62.585873 
	C116.773628,62.844212 117.048523,64.166458 117.003807,64.997276 
	C116.999939,65.000267 116.993668,65.007935 116.675537,65.046387 
	C115.903847,65.714615 115.450294,66.344376 114.665405,66.982468 
	C113.892189,66.996208 113.450310,67.001625 112.616959,67.006149 
	C107.609772,67.685287 107.756233,72.075836 105.754868,74.993027 
	C105.337166,75.000549 105.170074,75.003204 104.572449,75.003189 
	C98.903679,73.979286 98.629829,77.209579 98.952477,81.331100 
	C96.925079,84.111191 94.951721,86.557175 92.978363,89.003151 
z"/>
<path fill="#354870" opacity="1.000000" stroke="none" 
	d="
M86.996361,60.994564 
	C83.032639,64.768227 79.068916,68.541893 74.721329,72.655457 
	C73.900604,72.992729 73.463745,72.990112 72.877357,72.695267 
	C72.049950,71.864624 71.372070,71.326210 70.694183,70.787796 
	C75.958206,65.393425 81.224625,60.001389 86.477310,54.596001 
	C86.683586,54.383720 86.758614,54.043880 86.966660,53.422546 
	C90.092079,49.966656 93.145622,46.851700 96.096046,43.366348 
	C96.172356,42.721928 96.351768,42.447906 96.761902,42.072144 
	C99.438072,40.390499 101.883545,38.810604 104.676163,37.231026 
	C105.651428,38.284126 106.279541,39.336910 106.953766,40.705292 
	C104.854210,43.545704 102.708542,46.070515 99.902924,48.808430 
	C95.410591,52.423740 91.560585,55.806564 87.770218,59.254940 
	C87.340439,59.645947 87.246193,60.405766 86.996361,60.994564 
z"/>
<path fill="#C9D3E6" opacity="1.000000" stroke="none" 
	d="
M162.991608,30.977793 
	C162.993805,31.426199 162.996002,31.874607 162.992065,32.659195 
	C159.683899,36.096214 156.381897,39.197056 153.025238,42.650505 
	C150.944809,44.692043 148.794205,46.254082 146.920578,48.097637 
	C143.545334,51.418713 140.336014,54.908401 137.028687,58.663826 
	C137.000000,59.000000 137.009857,58.988731 137.009857,58.988731 
	C135.708725,60.073540 133.816071,60.903641 133.218506,62.291409 
	C131.496567,66.290306 127.942101,65.014328 125.135101,65.014374 
	C127.640030,62.002361 130.213821,59.794823 132.413681,57.262451 
	C133.210526,56.345142 133.112747,54.650681 133.423187,53.310837 
	C133.423187,53.310837 133.481171,53.323978 133.505203,53.343880 
	C138.091934,54.550732 140.186707,50.882511 142.690475,48.423576 
	C145.499847,45.664513 147.856110,42.444069 151.074158,39.331573 
	C153.458206,37.805481 155.177612,36.372177 156.897003,34.938873 
	C156.897003,34.938873 156.973236,34.984493 157.283905,34.911812 
	C158.046616,34.215805 158.498657,33.592484 158.950684,32.969162 
	C158.950684,32.969158 158.997421,33.001469 159.311707,32.944122 
	C160.074585,32.251678 160.523209,31.616579 160.971817,30.981480 
	C160.971817,30.981478 160.998901,31.001631 161.325607,30.982384 
	C162.098740,30.968023 162.545181,30.972908 162.991608,30.977793 
z"/>
<path fill="#4D5A7B" opacity="1.000000" stroke="none" 
	d="
M127.061844,16.826256 
	C126.618073,16.356104 126.670174,15.956548 127.336990,15.301603 
	C144.281143,15.049814 160.610580,15.053412 176.940002,15.057011 
	C176.940002,15.057011 177.000000,15.000076 176.956726,15.359089 
	C176.958862,16.154530 177.004272,16.590956 177.049683,17.027384 
	C177.049683,17.027384 176.993317,17.015440 176.653702,17.106369 
	C175.080536,19.605232 169.912766,18.512623 171.091476,23.066921 
	C171.091476,23.066921 171.027115,23.017368 170.726089,23.049246 
	C170.000046,23.104744 169.575027,23.128366 169.081146,23.082310 
	C169.012268,23.012630 168.874451,22.873323 168.874451,22.873323 
	C170.015900,17.053537 170.015961,17.039165 164.246201,17.016253 
	C152.016754,16.967688 139.787231,16.935659 127.061844,16.826256 
z"/>
<path fill="#4D5A7B" opacity="1.000000" stroke="none" 
	d="
M156.528229,34.930527 
	C155.177612,36.372177 153.458206,37.805481 151.371887,39.138508 
	C152.723129,37.666214 154.441284,36.294193 156.528229,34.930527 
z"/>
<path fill="#4D5A7B" opacity="1.000000" stroke="none" 
	d="
M167.108246,25.503252 
	C166.236862,26.866781 165.035965,28.039707 163.482162,29.192379 
	C164.345734,27.885633 165.562225,26.599142 167.108246,25.503252 
z"/>
<path fill="#4D5A7B" opacity="1.000000" stroke="none" 
	d="
M168.908401,24.924740 
	C168.606354,24.975687 168.335541,25.096592 167.895004,25.383850 
	C167.859161,24.688540 168.024292,23.896833 168.531937,22.989225 
	C168.874451,22.873323 169.012268,23.012630 169.032349,23.376522 
	C169.004425,24.135189 168.956406,24.529964 168.908401,24.924740 
z"/>
<path fill="#4D5A7B" opacity="1.000000" stroke="none" 
	d="
M163.101074,30.681202 
	C162.545181,30.972908 162.098740,30.968023 161.317490,30.967968 
	C161.485336,30.349262 161.988007,29.725731 162.830383,29.114098 
	C163.183578,29.545532 163.197067,29.965071 163.101074,30.681202 
z"/>
<path fill="#4D5A7B" opacity="1.000000" stroke="none" 
	d="
M158.628601,32.992687 
	C158.498657,33.592484 158.046616,34.215805 157.269135,34.869911 
	C157.397964,34.272530 157.852234,33.644371 158.628601,32.992687 
z"/>
<path fill="#4D5A7B" opacity="1.000000" stroke="none" 
	d="
M160.645752,31.003819 
	C160.523209,31.616579 160.074585,32.251678 159.298065,32.919243 
	C159.419983,32.309860 159.869827,31.668009 160.645752,31.003819 
z"/>
<path fill="#707B97" opacity="1.000000" stroke="none" 
	d="
M174.902542,167.143188 
	C175.354950,167.101532 175.807373,167.059891 176.600281,167.039459 
	C177.681198,170.734512 175.486969,171.123566 172.633286,171.095779 
	C162.387466,170.995956 152.140701,170.993576 141.427795,171.031250 
	C134.659760,171.054367 128.358231,171.000565 121.549179,170.626282 
	C120.991158,169.907867 120.940651,169.509933 121.363655,169.053925 
	C133.041611,168.999847 144.246292,169.040985 155.450180,168.964462 
	C156.989288,168.953964 158.524414,168.358536 160.447052,168.027557 
	C161.858536,168.027481 162.884354,168.033768 164.198914,168.339005 
	C166.255203,168.783432 168.067993,169.238464 169.777740,168.988586 
	C171.538300,168.731293 173.198456,167.786926 174.902542,167.143188 
z"/>
<path fill="#C7D1E3" opacity="1.000000" stroke="none" 
	d="
M109.366470,162.979736 
	C108.446182,162.452194 107.870071,161.978500 107.174110,161.246368 
	C105.877098,159.504364 104.773918,157.953934 103.506805,156.551636 
	C101.133530,153.925186 98.665291,151.384567 96.335739,148.376099 
	C96.630737,147.659042 96.826561,147.374115 97.275826,147.171707 
	C97.883003,147.237061 98.236748,147.219894 98.656219,147.550476 
	C99.427521,148.376266 100.133087,148.854309 100.852310,149.663422 
	C101.540382,150.405350 102.214790,150.816223 102.902458,151.571564 
	C107.825325,156.721283 112.734932,161.526520 117.451828,166.530319 
	C117.129906,166.860519 117.000679,166.992172 116.871460,167.123810 
	C114.484528,165.760391 112.097588,164.396988 109.366470,162.979736 
z"/>
<path fill="#C7D1E3" opacity="1.000000" stroke="none" 
	d="
M120.890137,169.111984 
	C120.940651,169.509933 120.991158,169.907867 121.089966,170.602661 
	C118.801163,171.208908 116.843193,170.989380 116.908730,167.509247 
	C117.000679,166.992172 117.129906,166.860519 117.683311,166.731705 
	C119.035049,167.527008 119.962593,168.319489 120.890137,169.111984 
z"/>
<path fill="#B0B9CD" opacity="1.000000" stroke="none" 
	d="
M176.970001,14.721165 
	C160.610580,15.053412 144.281143,15.049814 127.484207,15.036987 
	C127.027603,14.621863 127.038498,14.215967 127.053093,13.508411 
	C143.382339,13.144975 159.707870,13.083200 176.497986,13.030496 
	C176.975037,13.488150 176.987518,13.936734 176.970001,14.721165 
z"/>
<path fill="#E9ECF5" opacity="1.000000" stroke="none" 
	d="
M140.993240,133.016953 
	C147.004776,137.749588 155.007278,139.973465 158.594238,147.613525 
	C156.452377,147.649490 154.688492,147.356949 152.942810,147.055328 
	C152.961029,147.046265 152.946671,147.079605 152.941666,146.753815 
	C152.347214,145.892883 151.757782,145.357758 151.063705,144.509308 
	C150.240051,143.838486 149.521011,143.481003 148.582916,143.056885 
	C148.119003,142.808731 147.850540,142.674500 147.528015,142.548218 
	C147.497604,142.508911 147.403458,142.476913 147.228607,142.194717 
	C144.996948,139.693146 142.940155,137.473755 140.923828,134.882629 
	C140.973923,134.012909 140.983582,133.514923 140.993240,133.016953 
z"/>
<path fill="#C7CFE8" opacity="1.000000" stroke="none" 
	d="
M152.924606,147.064392 
	C154.688492,147.356949 156.452377,147.649490 158.599518,147.983994 
	C158.982788,148.025940 159.044662,148.488037 159.077362,148.718536 
	C159.060699,149.438446 159.011337,149.927841 158.914703,150.783722 
	C157.183609,150.394165 155.499756,149.638153 153.388947,148.583023 
	C152.949539,147.877396 152.937073,147.470901 152.924606,147.064392 
z"/>
<path fill="#E2E7F3" opacity="1.000000" stroke="none" 
	d="
M136.961502,131.041718 
	C137.689209,131.397171 138.310974,131.861526 138.909241,132.721725 
	C138.885757,133.117569 138.720398,133.287277 138.388229,133.271179 
	C137.585449,132.626373 137.114853,131.997696 136.644241,131.369003 
	C136.644241,131.369003 136.855545,131.150620 136.961502,131.041718 
z"/>
<path fill="#E2E7F3" opacity="1.000000" stroke="none" 
	d="
M140.669205,133.008347 
	C140.983582,133.514923 140.973923,134.012909 140.587479,134.845947 
	C139.713928,134.549774 139.217163,133.918518 138.720398,133.287277 
	C138.720398,133.287277 138.885757,133.117569 138.969574,133.031525 
	C139.483978,132.963562 139.914581,132.981659 140.669205,133.008347 
z"/>
<path fill="#31426C" opacity="1.000000" stroke="none" 
	d="
M105.002975,75.005867 
	C105.170074,75.003204 105.337166,75.000549 106.122589,74.987427 
	C110.258293,73.443443 113.089241,71.370140 113.008423,67.007042 
	C113.450310,67.001625 113.892189,66.996208 114.985382,66.948410 
	C116.089020,66.273331 116.541344,65.640633 116.993668,65.007935 
	C116.993668,65.007935 116.999939,65.000267 117.445885,65.000046 
	C119.662712,65.035332 121.433586,65.070831 123.204468,65.106339 
	C122.852699,65.521683 122.500938,65.937035 122.048996,66.612671 
	C116.918808,71.954185 111.888802,77.035408 106.844727,82.474503 
	C104.483437,84.711357 102.159584,86.620567 99.780800,88.458694 
	C98.186256,89.690842 96.513779,90.822144 94.514290,92.035950 
	C93.767883,91.285202 93.383362,90.497063 92.988602,89.356033 
	C94.951721,86.557175 96.925079,84.111191 99.340942,81.329147 
	C103.947571,81.110779 103.208267,76.953773 105.002975,75.005867 
z"/>
<path fill="#2F4478" opacity="1.000000" stroke="none" 
	d="
M123.505020,65.118706 
	C121.433586,65.070831 119.662712,65.035332 117.449753,64.997055 
	C117.048523,64.166458 116.773628,62.844212 117.178162,62.585873 
	C122.258484,59.341545 127.437035,56.251022 133.006805,53.215981 
	C133.112747,54.650681 133.210526,56.345142 132.413681,57.262451 
	C130.213821,59.794823 127.640030,62.002361 125.107674,64.683884 
	C124.602684,65.063309 124.204132,65.097198 123.505020,65.118706 
z"/>
<path fill="#C9D3E6" opacity="1.000000" stroke="none" 
	d="
M136.994339,59.004932 
	C137.483154,59.301792 137.977615,59.593719 138.472092,59.885643 
	C138.301712,60.083706 138.131348,60.281769 137.960983,60.479832 
	C137.675507,60.163692 137.390045,59.847553 137.057220,59.260071 
	C137.009857,58.988731 137.000000,59.000000 136.994339,59.004932 
z"/>
<path fill="#29406A" opacity="1.000000" stroke="none" 
	d="
M104.993416,111.031052 
	C104.549271,111.022255 104.105125,111.013458 103.285980,110.679581 
	C102.275093,109.902435 101.639206,109.450378 101.003319,108.998314 
	C101.003319,108.998314 101.000000,109.000000 100.958000,108.678482 
	C100.277122,107.906380 99.638237,107.455788 98.999359,107.005203 
	C98.999359,107.005203 98.999886,107.000305 98.997200,107.000610 
	C100.110374,106.322853 101.226234,105.644783 102.725449,104.930832 
	C103.108803,104.894943 103.059509,104.924522 103.082397,105.246078 
	C103.793587,106.007515 104.481880,106.447388 105.170174,106.887268 
	C105.170174,106.887268 105.076599,106.931664 105.092438,107.220810 
	C105.740715,108.006744 106.373154,108.503532 107.005585,109.000320 
	C115.785393,116.629440 124.565193,124.258560 133.773682,132.359558 
	C135.835587,134.857498 137.468826,136.883575 139.073975,138.934204 
	C139.045898,138.958786 138.993866,139.007339 138.602386,139.004120 
	C135.042419,138.112244 132.355286,137.223358 130.291458,133.838791 
	C128.392517,130.724625 125.967148,126.686539 121.004822,127.000610 
	C120.866249,126.536194 120.874641,125.908005 120.567024,125.631989 
	C116.107796,121.630875 111.606209,117.676979 107.010406,113.041801 
	C106.268509,111.924896 105.630966,111.477974 104.993416,111.031052 
z"/>
<path fill="#606C8D" opacity="1.000000" stroke="none" 
	d="
M139.102066,138.909637 
	C137.468826,136.883575 135.835587,134.857498 134.079346,132.530197 
	C134.664536,131.963638 135.372742,131.698318 136.362595,131.401001 
	C137.114853,131.997696 137.585449,132.626373 138.388229,133.271179 
	C139.217163,133.918518 139.713928,134.549774 140.547028,135.217712 
	C142.940155,137.473755 144.996948,139.693146 146.853119,142.380966 
	C144.135681,141.536163 141.618866,140.222900 139.102066,138.909637 
z"/>
<path fill="#314572" opacity="1.000000" stroke="none" 
	d="
M105.152649,106.536758 
	C104.481880,106.447388 103.793587,106.007515 103.091835,105.220222 
	C103.763962,105.310623 104.449547,105.748436 105.152649,106.536758 
z"/>
<path fill="#314572" opacity="1.000000" stroke="none" 
	d="
M107.079636,108.638153 
	C106.373154,108.503532 105.740715,108.006744 105.107910,107.171387 
	C105.789589,107.313873 106.471634,107.794930 107.079636,108.638153 
z"/>
<path fill="#27325B" opacity="1.000000" stroke="none" 
	d="
M174.591141,166.974396 
	C173.198456,167.786926 171.538300,168.731293 169.777740,168.988586 
	C168.067993,169.238464 166.255203,168.783432 164.496613,168.212006 
	C167.120407,166.763794 166.562927,165.525345 165.005630,163.837845 
	C164.531891,163.324493 164.965820,161.973511 164.984024,161.006165 
	C165.410843,161.024536 165.837662,161.042908 166.584930,161.056046 
	C169.363495,162.969086 171.821609,164.887344 174.591141,166.974396 
z"/>
<path fill="#2B3D6F" opacity="1.000000" stroke="none" 
	d="
M164.965271,160.709076 
	C164.965820,161.973511 164.531891,163.324493 165.005630,163.837845 
	C166.562927,165.525345 167.120407,166.763794 164.207855,167.913055 
	C162.884354,168.033768 161.858536,168.027481 160.060303,167.857758 
	C156.100693,167.462280 152.889282,167.392212 149.737900,166.920792 
	C148.423737,166.724228 147.237350,165.673416 146.443604,165.006439 
	C149.596741,165.000015 152.299118,164.998169 155.382080,164.997513 
	C157.495255,164.298050 159.227829,163.597397 162.016251,162.469772 
	C156.252365,157.298813 151.626495,153.148804 146.957336,148.678070 
	C146.271088,147.909546 145.628128,147.461746 144.655762,147.008453 
	C143.887161,146.996231 143.447968,146.989487 142.964081,146.664459 
	C142.281235,145.897736 141.643066,145.449295 141.002441,145.000427 
	C141.000000,145.000000 140.999130,144.995117 140.957611,144.675491 
	C140.279526,143.901886 139.642975,143.447922 139.004944,142.595184 
	C139.000290,141.133377 138.997086,140.070358 138.993866,139.007339 
	C138.993866,139.007339 139.045898,138.958786 139.073975,138.934204 
	C141.618866,140.222900 144.135681,141.536163 147.027969,142.663162 
	C147.403458,142.476913 147.497604,142.508911 147.341095,142.886719 
	C147.783707,143.847672 148.382843,144.430786 148.990692,145.008270 
	C148.999405,145.002625 148.986481,145.017944 149.014725,145.351135 
	C149.718338,146.107986 150.393707,146.531662 151.376495,147.029724 
	C152.104828,147.095947 152.525742,147.087784 152.946671,147.079620 
	C152.946671,147.079605 152.961029,147.046265 152.942810,147.055328 
	C152.937073,147.470901 152.949539,147.877396 153.022400,148.582825 
	C156.067139,151.634705 159.051483,154.387634 162.382675,157.212708 
	C163.215164,157.870728 163.700806,158.456619 164.469391,159.143433 
	C164.817078,159.633560 164.881790,160.022766 164.965271,160.709076 
z"/>
<path fill="#B0B9CD" opacity="1.000000" stroke="none" 
	d="
M171.454025,23.043493 
	C169.912766,18.512623 175.080536,19.605232 176.675201,17.125694 
	C177.954514,21.368380 173.475998,20.960978 171.454025,23.043493 
z"/>
<path fill="#B0B9CD" opacity="1.000000" stroke="none" 
	d="
M169.247437,24.943676 
	C168.956406,24.529964 169.004425,24.135189 169.101227,23.446201 
	C169.575027,23.128366 170.000046,23.104744 170.744659,23.085358 
	C170.571671,23.713930 170.079086,24.338270 169.247437,24.943676 
z"/>
<path fill="#B0B9CD" opacity="1.000000" stroke="none" 
	d="
M177.360657,16.996536 
	C177.004272,16.590956 176.958862,16.154530 176.927948,15.388701 
	C177.495590,15.255400 178.048691,15.451498 178.601807,15.647596 
	C178.291748,16.086962 177.981705,16.526327 177.360657,16.996536 
z"/>
<path fill="#455A7D" opacity="1.000000" stroke="none" 
	d="
M97.022385,147.089188 
	C96.826561,147.374115 96.630737,147.659042 96.195450,148.060852 
	C95.087944,147.302994 94.219894,146.428253 93.167419,145.278442 
	C92.344597,143.907028 91.706207,142.810684 91.410095,141.354706 
	C95.993195,140.878204 95.253799,145.068115 97.022385,147.089188 
z"/>
<path fill="#BDC9DC" opacity="1.000000" stroke="none" 
	d="
M75.431580,130.977783 
	C75.029839,129.949509 74.962234,128.990952 74.849586,127.675583 
	C74.804550,127.318771 74.950111,127.117729 75.343124,127.103241 
	C78.197624,129.666733 80.659111,132.244736 83.070869,134.948303 
	C83.021133,135.073883 82.880104,135.304291 82.880104,135.304291 
	C80.508644,133.885361 78.137184,132.466446 75.431580,130.977783 
z"/>
<path fill="#D3DCEA" opacity="1.000000" stroke="none" 
	d="
M84.870667,137.143326 
	C84.207016,136.773453 83.620468,136.319397 82.957016,135.584808 
	C82.880104,135.304291 83.021133,135.073883 83.402069,135.002350 
	C84.223907,135.585281 84.664810,136.239777 85.105713,136.894257 
	C85.105713,136.894257 84.947769,137.059128 84.870667,137.143326 
z"/>
<path fill="#2F3551" opacity="1.000000" stroke="none" 
	d="
M70.308968,70.767700 
	C71.372070,71.326210 72.049950,71.864624 72.796051,73.075562 
	C72.247803,75.711723 71.139473,77.665314 71.099060,79.640747 
	C70.912636,88.753677 71.023628,97.872704 71.018074,107.434967 
	C71.019424,110.254387 71.030701,112.628380 71.076424,115.332214 
	C71.742020,116.776527 72.373169,117.891006 72.877220,119.290138 
	C72.470238,120.130470 72.190361,120.686150 71.910477,121.241821 
	C70.525620,120.543938 69.140755,119.846054 67.412292,119.061859 
	C67.040787,113.958336 67.012871,108.941132 66.914688,103.461723 
	C66.901024,94.281288 66.778877,85.555519 67.145103,76.850311 
	C67.232178,74.780769 68.953911,72.780006 70.308968,70.767700 
z"/>
<path fill="#34486B" opacity="1.000000" stroke="none" 
	d="
M85.453644,136.931900 
	C84.664810,136.239777 84.223907,135.585281 83.451805,134.876770 
	C80.659111,132.244736 78.197624,129.666733 75.400848,126.993378 
	C74.326347,125.536720 73.587135,124.175430 73.168602,122.450050 
	C74.661240,122.388161 75.833191,122.690361 77.336731,122.995872 
	C78.110481,123.002510 78.552643,123.005829 78.995750,123.398705 
	C79.112038,125.028061 79.227386,126.267868 79.359550,127.688377 
	C80.802368,127.416565 81.895065,127.210716 83.033371,127.324867 
	C83.718987,128.100235 84.358994,128.555618 85.041489,129.329422 
	C85.719986,130.098938 86.356003,130.550003 87.060013,131.358215 
	C88.415894,132.145599 89.703781,132.575836 90.991669,133.006073 
	C92.131958,134.318130 93.272255,135.630173 94.776016,137.307709 
	C95.740631,138.097015 96.341766,138.520844 96.942909,138.944672 
	C96.942909,138.944672 97.000145,138.999649 97.061768,139.332214 
	C97.730194,140.092743 98.336990,140.520691 98.943794,140.948654 
	C98.943794,140.948654 98.998642,141.001434 99.060272,141.332642 
	C99.729317,142.087448 100.336731,142.511047 100.944145,142.934647 
	C101.593987,144.056076 102.243820,145.177490 102.938202,147.056946 
	C102.951561,148.952362 102.920380,150.089722 102.889198,151.227097 
	C102.214790,150.816223 101.540382,150.405350 100.847145,149.285049 
	C100.082375,148.117981 99.336433,147.660355 98.590485,147.202728 
	C98.236748,147.219894 97.883003,147.237061 97.275826,147.171707 
	C95.253799,145.068115 95.993195,140.878204 91.360222,141.006744 
	C90.569565,140.964554 90.171059,140.910660 89.470551,140.844421 
	C88.046227,139.544556 86.923904,138.257050 85.453644,136.931900 
z"/>
<path fill="#32436E" opacity="1.000000" stroke="none" 
	d="
M77.005150,122.992561 
	C75.833191,122.690361 74.661240,122.388161 73.120712,122.088074 
	C72.443474,122.059311 72.202484,121.915230 71.969826,121.449883 
	C72.190361,120.686150 72.470238,120.130470 73.274033,119.289932 
	C76.964043,118.647568 77.142700,120.692902 77.005150,122.992561 
z"/>
<path fill="#29487E" opacity="1.000000" stroke="none" 
	d="
M43.000347,19.005260 
	C45.042294,19.002512 47.084244,18.999765 49.563831,18.993031 
	C50.335930,20.716908 50.960602,22.444452 50.962498,24.172682 
	C51.012890,70.135628 50.999111,116.098656 50.618019,162.530365 
	C49.492916,162.998550 48.746033,162.998062 48.053173,162.582825 
	C48.404842,160.051773 48.943233,157.937302 48.959797,155.818771 
	C49.046215,144.764557 49.059368,133.708786 48.964901,122.654678 
	C48.935364,119.198120 48.549896,115.739578 48.225876,112.291481 
	C47.175987,101.119057 46.054981,89.953300 45.012711,78.780174 
	C44.629486,74.672012 44.154045,70.551208 44.141182,66.434868 
	C44.123425,60.751080 44.490608,55.065529 44.716396,49.381664 
	C45.120842,39.200237 49.968525,28.769903 43.000347,19.005260 
z"/>
<path fill="#2F467D" opacity="1.000000" stroke="none" 
	d="
M47.999149,162.997559 
	C48.746033,162.998062 49.492916,162.998550 50.612850,162.998917 
	C50.354744,164.102493 49.723587,165.206207 49.034443,166.632751 
	C46.619709,166.961136 44.262959,166.966705 41.373829,166.595322 
	C38.340343,164.490494 35.947483,163.763824 33.978783,166.960327 
	C30.630545,166.966293 27.282307,166.972275 23.479025,166.966965 
	C21.913095,163.333771 19.634171,165.637772 17.384853,165.953232 
	C17.016459,136.310699 17.017557,106.631920 17.350838,76.478157 
	C18.120070,75.997765 18.557116,75.992355 18.997009,76.456940 
	C19.000589,81.065994 18.952705,85.205757 19.012505,89.343964 
	C19.125828,97.186119 19.326473,105.027016 19.439840,112.869164 
	C19.498951,116.958328 19.248699,121.061890 19.508947,125.135262 
	C19.741409,128.773743 20.483341,132.379700 21.000273,136.375000 
	C21.000341,137.500000 21.000599,138.250000 20.850538,139.343903 
	C20.134047,144.423767 19.447163,149.149216 19.034668,153.898514 
	C18.596899,158.938812 21.206913,161.857666 26.471428,162.998260 
	C33.959595,162.998474 40.979370,162.998016 47.999149,162.997559 
z"/>
<path fill="#263C6F" opacity="1.000000" stroke="none" 
	d="
M18.994164,75.986946 
	C18.557116,75.992355 18.120070,75.997765 17.355839,76.010666 
	C17.017670,66.325554 17.006683,56.632942 16.995274,46.472115 
	C16.996725,39.222717 16.928621,32.440231 17.054815,25.661364 
	C17.082726,24.162022 17.797775,22.675470 18.597404,21.557140 
	C18.996975,39.949814 18.995569,57.968380 18.994164,75.986946 
z"/>
<path fill="#294982" opacity="1.000000" stroke="none" 
	d="
M18.997009,76.456940 
	C18.995569,57.968380 18.996975,39.949814 18.992144,21.461750 
	C18.991665,20.553965 18.997423,20.115677 19.010971,19.349058 
	C24.699556,19.017036 30.380352,19.013346 36.489975,19.377262 
	C35.396027,24.675901 33.093983,28.568087 27.623075,30.460125 
	C23.000660,32.058727 21.248154,36.923878 22.178026,42.018856 
	C22.474018,43.640659 22.961159,45.269997 22.963984,46.896580 
	C23.012836,75.037666 23.031569,103.178986 22.914724,131.319672 
	C22.908236,132.882401 21.666986,134.440002 21.000462,136.000000 
	C20.483341,132.379700 19.741409,128.773743 19.508947,125.135262 
	C19.248699,121.061890 19.498951,116.958328 19.439840,112.869164 
	C19.326473,105.027016 19.125828,97.186119 19.012505,89.343964 
	C18.952705,85.205757 19.000589,81.065994 18.997009,76.456940 
z"/>
<path fill="#234B81" opacity="1.000000" stroke="none" 
	d="
M21.000275,136.375000 
	C21.666986,134.440002 22.908236,132.882401 22.914724,131.319672 
	C23.031569,103.178986 23.012836,75.037666 22.963984,46.896580 
	C22.961159,45.269997 22.474018,43.640659 22.178026,42.018856 
	C21.248154,36.923878 23.000660,32.058727 27.623075,30.460125 
	C33.093983,28.568087 35.396027,24.675901 36.957672,19.381950 
	C38.712040,19.013157 40.427540,19.007278 42.571693,19.003330 
	C49.968525,28.769903 45.120842,39.200237 44.716396,49.381664 
	C44.490608,55.065529 44.123425,60.751080 44.141182,66.434868 
	C44.154045,70.551208 44.629486,74.672012 45.012711,78.780174 
	C46.054981,89.953300 47.175987,101.119057 48.225876,112.291481 
	C48.549896,115.739578 48.935364,119.198120 48.964901,122.654678 
	C49.059368,133.708786 49.046215,144.764557 48.959797,155.818771 
	C48.943233,157.937302 48.404842,160.051773 48.053173,162.582825 
	C40.979370,162.998016 33.959595,162.998474 26.434383,162.648880 
	C25.732244,161.846436 25.653114,161.265518 25.320715,160.961502 
	C21.854200,157.791046 20.146339,154.889862 23.191246,149.880630 
	C25.123913,146.701172 25.267857,141.913620 21.000856,139.000000 
	C21.000599,138.250000 21.000341,137.500000 21.000275,136.375000 
z"/>
<path fill="#2A3B69" opacity="1.000000" stroke="none" 
	d="
M34.418915,166.978058 
	C35.947483,163.763824 38.340343,164.490494 40.931805,166.586731 
	C38.967793,166.968674 36.913422,166.982224 34.418915,166.978058 
z"/>
<path fill="#254A84" opacity="1.000000" stroke="none" 
	d="
M143.008759,146.982742 
	C143.447968,146.989487 143.887161,146.996231 144.661087,147.338684 
	C144.998016,148.115051 145.000229,148.555695 144.999878,149.334625 
	C144.664871,150.448624 144.332443,151.224304 143.642685,151.844009 
	C137.862061,149.971985 132.485489,148.077271 126.989243,146.640198 
	C125.149918,146.159271 123.005135,146.846649 120.550407,147.000000 
	C115.070168,146.998520 110.039482,146.997055 105.004791,146.997894 
	C105.000778,147.000229 105.004425,146.990997 105.004425,146.990997 
	C105.009857,143.419006 104.716331,139.807907 105.175888,136.295319 
	C105.346687,134.989883 107.119583,133.154755 108.441231,132.873413 
	C112.976418,131.907974 117.635361,131.523880 122.623566,130.959091 
	C123.000000,131.000000 123.000702,131.003052 123.043228,131.381805 
	C123.714485,133.468857 124.967422,135.219223 124.855598,136.877563 
	C124.512054,141.971985 127.931396,142.499969 131.505783,142.956650 
	C132.982010,143.145264 134.501602,142.994553 136.251175,142.998688 
	C136.500885,142.999222 137.000320,143.001831 137.042343,143.321808 
	C137.722717,144.093704 138.361053,144.545624 139.332687,144.998260 
	C140.110367,144.997696 140.554749,144.996399 140.999130,144.995117 
	C140.999130,144.995117 141.000000,145.000000 141.043518,145.320740 
	C141.727600,146.088562 142.368179,146.535660 143.008759,146.982742 
z"/>
<path fill="#283961" opacity="1.000000" stroke="none" 
	d="
M102.902458,151.571564 
	C102.920380,150.089722 102.951561,148.952362 102.990463,147.387115 
	C103.443939,146.969574 103.889694,146.979904 104.669937,146.990616 
	C105.004425,146.990997 105.000778,147.000229 105.047424,147.322693 
	C106.395416,148.764297 107.696754,149.883453 109.051117,151.339172 
	C110.133324,152.708618 111.232552,153.681320 112.180298,154.784180 
	C118.211487,161.802399 125.169594,166.496780 135.093231,165.083344 
	C138.657562,164.575668 142.355759,165.007797 145.992859,165.011032 
	C147.237350,165.673416 148.423737,166.724228 149.737900,166.920792 
	C152.889282,167.392212 156.100693,167.462280 159.674637,167.864120 
	C158.524414,168.358536 156.989288,168.953964 155.450180,168.964462 
	C144.246292,169.040985 133.041611,168.999847 121.363655,169.053925 
	C119.962593,168.319489 119.035049,167.527008 117.876015,166.533142 
	C112.734932,161.526520 107.825325,156.721283 102.902458,151.571564 
z"/>
<path fill="#264C79" opacity="1.000000" stroke="none" 
	d="
M87.401779,60.998222 
	C87.246193,60.405766 87.340439,59.645947 87.770218,59.254940 
	C91.560585,55.806564 95.410591,52.423740 99.622246,49.013752 
	C96.927261,55.153561 99.172348,61.584621 99.002342,67.886208 
	C98.890617,72.027733 97.241379,74.692017 92.671181,73.927010 
	C90.889435,73.628761 89.244156,72.515198 87.536720,71.773003 
	C88.236435,70.233284 88.697174,68.515831 89.683716,67.189453 
	C92.008728,64.063522 91.511322,62.124435 87.401779,60.998222 
z"/>
<path fill="#2C4575" opacity="1.000000" stroke="none" 
	d="
M71.028000,106.989540 
	C71.023628,97.872704 70.912636,88.753677 71.099060,79.640747 
	C71.139473,77.665314 72.247803,75.711723 72.945572,73.367783 
	C73.463745,72.990112 73.900604,72.992729 74.665253,72.994621 
	C74.329140,82.686714 73.665237,92.379532 73.000229,102.911148 
	C72.342079,104.829803 71.685043,105.909676 71.028000,106.989540 
z"/>
<path fill="#294476" opacity="1.000000" stroke="none" 
	d="
M137.000320,143.001831 
	C137.000320,143.001831 136.500885,142.999222 136.190262,142.644196 
	C132.750778,139.340027 129.655548,136.353867 126.473885,133.462860 
	C125.431633,132.515823 124.164818,131.815948 123.000702,131.003052 
	C123.000702,131.003052 123.000000,131.000000 122.998627,130.999695 
	C122.363457,129.885666 121.729668,128.771942 121.050346,127.329414 
	C125.967148,126.686539 128.392517,130.724625 130.291458,133.838791 
	C132.355286,137.223358 135.042419,138.112244 138.602386,139.004120 
	C138.997086,140.070358 139.000290,141.133377 139.001862,142.598083 
	C139.000214,142.999786 138.997559,143.002441 138.664703,143.001526 
	C137.888000,143.001022 137.444153,143.001434 137.000320,143.001831 
z"/>
<path fill="#2C4678" opacity="1.000000" stroke="none" 
	d="
M77.336731,122.995872 
	C77.142700,120.692902 76.964043,118.647568 73.401138,119.005295 
	C72.373169,117.891006 71.742020,116.776527 71.470886,115.330841 
	C72.886658,114.998749 73.942413,114.997849 74.998169,114.996948 
	C80.536888,115.588730 81.358452,120.266937 83.000130,124.617302 
	C82.999786,125.000214 82.995728,125.004036 82.667168,124.955719 
	C81.224014,124.274651 80.109413,123.641899 78.994812,123.009155 
	C78.552643,123.005829 78.110481,123.002510 77.336731,122.995872 
z"/>
<path fill="#224473" opacity="1.000000" stroke="none" 
	d="
M74.999130,114.538429 
	C73.942413,114.997849 72.886658,114.998749 71.436447,115.001015 
	C71.030701,112.628380 71.019424,110.254387 71.018074,107.434967 
	C71.685043,105.909676 72.342079,104.829803 73.000320,103.375473 
	C73.667519,104.741524 74.606209,106.433853 74.924644,108.235794 
	C75.259224,110.129143 74.999886,112.127464 74.999130,114.538429 
z"/>
<path fill="#2E477F" opacity="1.000000" stroke="none" 
	d="
M112.616959,67.006149 
	C113.089241,71.370140 110.258293,73.443443 106.373215,74.982559 
	C107.756233,72.075836 107.609772,67.685287 112.616959,67.006149 
z"/>
<path fill="#304B82" opacity="1.000000" stroke="none" 
	d="
M104.572449,75.003189 
	C103.208267,76.953773 103.947571,81.110779 99.394981,80.995033 
	C98.629829,77.209579 98.903679,73.979286 104.572449,75.003189 
z"/>
<path fill="#2C4678" opacity="1.000000" stroke="none" 
	d="
M84.999001,129.010986 
	C84.358994,128.555618 83.718987,128.100235 83.037102,126.991302 
	C82.995384,125.893173 82.995560,125.448601 82.995728,125.004036 
	C82.995728,125.004036 82.999786,125.000214 83.002106,124.998032 
	C84.303162,126.108925 85.601898,127.222000 86.949356,128.668488 
	C86.998093,129.001907 86.991455,129.008545 86.659424,129.006897 
	C85.884598,129.007156 85.441803,129.009079 84.999001,129.010986 
z"/>
<path fill="#2C4678" opacity="1.000000" stroke="none" 
	d="
M90.945160,132.673508 
	C89.703781,132.575836 88.415894,132.145599 87.061638,131.026062 
	C86.993996,129.894028 86.992722,129.451279 86.991455,129.008545 
	C86.991455,129.008545 86.998093,129.001907 87.000198,128.999878 
	C88.301086,130.112213 89.599869,131.226578 90.945160,132.673508 
z"/>
<path fill="#314572" opacity="1.000000" stroke="none" 
	d="
M105.038055,111.346428 
	C105.630966,111.477974 106.268509,111.924896 106.941162,112.693443 
	C106.345085,112.563980 105.713890,112.112892 105.038055,111.346428 
z"/>
<path fill="#314572" opacity="1.000000" stroke="none" 
	d="
M101.044449,109.318146 
	C101.639206,109.450378 102.275093,109.902435 102.952866,110.673157 
	C102.358360,110.540543 101.721977,110.089264 101.044449,109.318146 
z"/>
<path fill="#2F4478" opacity="1.000000" stroke="none" 
	d="
M116.675537,65.046387 
	C116.541344,65.640633 116.089020,66.273331 115.316711,66.940079 
	C115.450294,66.344376 115.903847,65.714615 116.675537,65.046387 
z"/>
<path fill="#455A7D" opacity="1.000000" stroke="none" 
	d="
M96.911224,138.641754 
	C96.341766,138.520844 95.740631,138.097015 95.112320,137.371094 
	C95.683289,137.492279 96.281410,137.915558 96.911224,138.641754 
z"/>
<path fill="#455A7D" opacity="1.000000" stroke="none" 
	d="
M98.911728,140.642548 
	C98.336990,140.520691 97.730194,140.092743 97.089363,139.360733 
	C97.663445,139.483261 98.271553,139.909851 98.911728,140.642548 
z"/>
<path fill="#455A7D" opacity="1.000000" stroke="none" 
	d="
M100.910355,142.629944 
	C100.336731,142.511047 99.729317,142.087448 99.086670,141.360062 
	C99.659821,141.479263 100.268188,141.902252 100.910355,142.629944 
z"/>
<path fill="#314572" opacity="1.000000" stroke="none" 
	d="
M99.042236,107.324814 
	C99.638237,107.455788 100.277122,107.906380 100.958847,108.676819 
	C100.362831,108.545921 99.723976,108.095169 99.042236,107.324814 
z"/>
<path fill="#455A7D" opacity="1.000000" stroke="none" 
	d="
M98.656219,147.550476 
	C99.336433,147.660355 100.082375,148.117981 100.833488,148.953979 
	C100.133087,148.854309 99.427521,148.376266 98.656219,147.550476 
z"/>
<path fill="#606C8D" opacity="1.000000" stroke="none" 
	d="
M148.981964,145.013916 
	C148.382843,144.430786 147.783707,143.847672 147.371521,142.926041 
	C147.850540,142.674500 148.119003,142.808731 148.637802,143.368942 
	C148.935150,144.169739 148.958557,144.591827 148.981964,145.013916 
z"/>
<path fill="#C7CFE8" opacity="1.000000" stroke="none" 
	d="
M148.990692,145.008270 
	C148.958557,144.591827 148.935150,144.169739 148.856857,143.435577 
	C149.521011,143.481003 150.240051,143.838486 150.997620,144.578766 
	C151.036148,144.961563 150.904648,145.096985 150.585892,145.067276 
	C149.840256,145.031021 149.413361,145.024490 148.986481,145.017944 
	C148.986481,145.017944 148.999405,145.002625 148.990692,145.008270 
z"/>
<path fill="#C7CFE8" opacity="1.000000" stroke="none" 
	d="
M152.941666,146.753815 
	C152.525742,147.087784 152.104828,147.095947 151.360748,146.718750 
	C150.993286,145.921249 150.948959,145.509125 150.904648,145.096985 
	C150.904648,145.096985 151.036148,144.961563 151.102234,144.892090 
	C151.757782,145.357758 152.347214,145.892883 152.941666,146.753815 
z"/>
<path fill="#29487A" opacity="1.000000" stroke="none" 
	d="
M146.443604,165.006439 
	C142.355759,165.007797 138.657562,164.575668 135.093231,165.083344 
	C125.169594,166.496780 118.211487,161.802399 112.180298,154.784180 
	C111.232552,153.681320 110.133324,152.708618 109.486969,151.337738 
	C114.939156,150.287430 118.862679,151.499313 120.580795,156.962936 
	C120.847809,157.812012 122.165260,158.330750 123.043350,159.390182 
	C124.624207,160.851151 126.030792,162.528427 127.716827,162.885254 
	C133.022446,164.008087 137.597366,162.410492 141.377167,158.003632 
	C145.683929,160.585739 149.184616,164.128189 154.487320,163.672760 
	C154.619843,163.661362 154.828400,164.535309 155.001495,164.996338 
	C152.299118,164.998169 149.596741,165.000015 146.443604,165.006439 
z"/>
<path fill="#28497F" opacity="1.000000" stroke="none" 
	d="
M155.382080,164.997528 
	C154.828400,164.535309 154.619843,163.661362 154.487320,163.672760 
	C149.184616,164.128189 145.683929,160.585739 141.430161,157.659515 
	C142.071945,155.539566 143.035980,153.769791 144.000000,152.000000 
	C144.332443,151.224304 144.664871,150.448624 145.332855,149.335526 
	C146.112488,148.998337 146.556549,148.998566 147.000610,148.998779 
	C151.626495,153.148804 156.252365,157.298813 162.016251,162.469772 
	C159.227829,163.597397 157.495255,164.298050 155.382080,164.997528 
z"/>
<path fill="#294476" opacity="1.000000" stroke="none" 
	d="
M146.957336,148.678070 
	C146.556549,148.998566 146.112488,148.998337 145.335449,148.997223 
	C145.000229,148.555695 144.998016,148.115051 144.990479,147.344177 
	C145.628128,147.461746 146.271088,147.909546 146.957336,148.678070 
z"/>
<path fill="#606C8D" opacity="1.000000" stroke="none" 
	d="
M150.585892,145.067276 
	C150.948959,145.509125 150.993286,145.921249 151.053345,146.644363 
	C150.393707,146.531662 149.718338,146.107986 149.014725,145.351135 
	C149.413361,145.024490 149.840256,145.031021 150.585892,145.067276 
z"/>
<path fill="#294476" opacity="1.000000" stroke="none" 
	d="
M140.957611,144.675491 
	C140.554749,144.996399 140.110367,144.997696 139.332977,144.665771 
	C138.999161,143.889175 138.998352,143.445816 138.997559,143.002441 
	C138.997559,143.002441 139.000214,142.999786 139.003311,142.996872 
	C139.642975,143.447922 140.279526,143.901886 140.957611,144.675491 
z"/>
<path fill="#294476" opacity="1.000000" stroke="none" 
	d="
M142.964081,146.664459 
	C142.368179,146.535660 141.727600,146.088562 141.045959,145.321167 
	C141.643066,145.449295 142.281235,145.897736 142.964081,146.664459 
z"/>
<path fill="#32436E" opacity="1.000000" stroke="none" 
	d="
M82.667168,124.955719 
	C82.995560,125.448601 82.995384,125.893173 82.991486,126.671303 
	C81.895065,127.210716 80.802368,127.416565 79.359550,127.688377 
	C79.227386,126.267868 79.112038,125.028061 78.995750,123.398697 
	C80.109413,123.641899 81.224014,124.274651 82.667168,124.955719 
z"/>
<path fill="#32436E" opacity="1.000000" stroke="none" 
	d="
M86.659424,129.006897 
	C86.992722,129.451279 86.993996,129.894028 86.993637,130.668915 
	C86.356003,130.550003 85.719986,130.098938 85.041489,129.329437 
	C85.441803,129.009079 85.884598,129.007156 86.659424,129.006897 
z"/>
<path fill="#294982" opacity="1.000000" stroke="none" 
	d="
M20.850538,139.343903 
	C25.267857,141.913620 25.123913,146.701172 23.191246,149.880630 
	C20.146339,154.889862 21.854200,157.791046 25.320715,160.961502 
	C25.653114,161.265518 25.732244,161.846436 25.965996,162.648193 
	C21.206913,161.857666 18.596899,158.938812 19.034668,153.898514 
	C19.447163,149.149216 20.134047,144.423767 20.850538,139.343903 
z"/>
<path fill="#224A81" opacity="1.000000" stroke="none" 
	d="
M143.642700,151.844009 
	C143.035980,153.769791 142.071945,155.539566 141.054901,157.653442 
	C137.597366,162.410492 133.022446,164.008087 127.716827,162.885254 
	C126.030792,162.528427 124.624207,160.851151 123.044495,158.935211 
	C122.332817,154.394867 121.666389,150.697433 120.999969,147.000000 
	C123.005135,146.846649 125.149918,146.159271 126.989243,146.640198 
	C132.485489,148.077271 137.862061,149.971985 143.642700,151.844009 
z"/>
<path fill="#244A7F" opacity="1.000000" stroke="none" 
	d="
M120.550407,147.000000 
	C121.666389,150.697433 122.332817,154.394867 122.998093,158.547272 
	C122.165260,158.330750 120.847809,157.812012 120.580795,156.962936 
	C118.862679,151.499313 114.939156,150.287430 109.433945,151.001175 
	C107.696754,149.883453 106.395416,148.764297 105.051437,147.320358 
	C110.039482,146.997055 115.070168,146.998520 120.550407,147.000000 
z"/>
<path fill="#244A7F" opacity="1.000000" stroke="none" 
	d="
M123.043228,131.381805 
	C124.164818,131.815948 125.431633,132.515823 126.473885,133.462860 
	C129.655548,136.353867 132.750778,139.340027 135.940552,142.643661 
	C134.501602,142.994553 132.982010,143.145264 131.505783,142.956650 
	C127.931396,142.499969 124.512054,141.971985 124.855598,136.877563 
	C124.967422,135.219223 123.714485,133.468857 123.043228,131.381805 
z"/>
<path fill="#244A7F" opacity="1.000000" stroke="none" 
	d="
M138.664703,143.001526 
	C138.998352,143.445816 138.999161,143.889175 138.999664,144.665054 
	C138.361053,144.545624 137.722717,144.093704 137.042343,143.321808 
	C137.444153,143.001434 137.888000,143.001022 138.664703,143.001526 
z"/>
</svg>